#N canvas 48 175 983 494 10;
#X obj 334 271 outlet;
#X msg 344 250 0;
#X obj 404 271 outlet;
#X msg 414 250 0;
#X obj 474 271 outlet;
#X msg 484 250 0;
#X obj 544 271 outlet;
#X msg 554 250 0;
#X obj 614 271 outlet;
#X msg 624 250 0;
#X obj 684 271 outlet;
#X msg 694 250 0;
#X obj 754 271 outlet;
#X msg 764 250 0;
#X obj 824 271 outlet;
#X msg 834 250 0;
#X obj 264 271 outlet;
#X msg 274 250 0;
#X obj 9 126 pitch_shifter;
#X obj 193 245 loadbang;
#X obj 9 86 inlet~;
#X obj 9 239 outlet~;
#X obj 103 35 \$1;
#X obj 133 35 \$2;
#X obj 163 35 \$3;
#X obj 193 35 \$4;
#X obj 223 35 \$5;
#X obj 253 35 \$6;
#X obj 283 35 \$7;
#X obj 313 35 \$8;
#X obj 343 35 \$9;
#X msg 103 55 \$1;
#X msg 133 55 \$1;
#X msg 163 55 \$1;
#X msg 193 55 \$1;
#X msg 223 55 \$1;
#X msg 253 55 \$1;
#X msg 283 55 \$1;
#X msg 313 55 \$1;
#X msg 343 55 \$1;
#X obj 43 5 loadbang;
#X obj 103 5 inlet;
#X obj 143 5 inlet;
#X obj 183 5 inlet;
#X obj 223 5 inlet;
#X obj 263 5 inlet;
#X obj 303 5 inlet;
#X obj 343 5 inlet;
#X obj 383 5 inlet;
#X obj 423 5 inlet;
#X msg 264 159 1;
#X msg 334 159 1;
#X msg 404 159 1;
#X msg 474 159 1;
#X msg 544 159 1;
#X msg 614 159 1;
#X msg 684 159 1;
#X msg 754 159 1;
#X msg 824 159 1;
#X msg 53 66 1;
#X msg 63 87 0;
#X obj 264 129 dbng9 10;
#X obj 334 129 dbng9 10;
#X obj 404 129 dbng9 10;
#X obj 474 129 dbng9 10;
#X obj 544 129 dbng9 10;
#X obj 614 129 dbng9 10;
#X obj 684 129 dbng9 10;
#X obj 754 129 dbng9 10;
#X obj 824 129 dbng9 10;
#X msg 193 265 0.7;
#X connect 1 0 0 0;
#X connect 3 0 2 0;
#X connect 5 0 4 0;
#X connect 7 0 6 0;
#X connect 9 0 8 0;
#X connect 11 0 10 0;
#X connect 13 0 12 0;
#X connect 15 0 14 0;
#X connect 17 0 16 0;
#X connect 18 0 21 0;
#X connect 19 0 70 0;
#X connect 20 0 18 0;
#X connect 22 0 31 0;
#X connect 23 0 32 0;
#X connect 24 0 33 0;
#X connect 25 0 34 0;
#X connect 26 0 35 0;
#X connect 27 0 36 0;
#X connect 28 0 37 0;
#X connect 29 0 38 0;
#X connect 30 0 39 0;
#X connect 31 0 18 2;
#X connect 32 0 18 2;
#X connect 33 0 18 2;
#X connect 34 0 18 2;
#X connect 35 0 18 2;
#X connect 36 0 18 2;
#X connect 37 0 18 2;
#X connect 38 0 18 2;
#X connect 39 0 18 2;
#X connect 40 0 22 0;
#X connect 40 0 60 0;
#X connect 40 0 61 0;
#X connect 41 0 22 0;
#X connect 41 0 60 0;
#X connect 41 0 61 0;
#X connect 42 0 23 0;
#X connect 42 0 59 0;
#X connect 42 0 62 0;
#X connect 43 0 24 0;
#X connect 43 0 59 0;
#X connect 43 0 63 0;
#X connect 44 0 25 0;
#X connect 44 0 59 0;
#X connect 44 0 64 0;
#X connect 45 0 26 0;
#X connect 45 0 59 0;
#X connect 45 0 65 0;
#X connect 46 0 27 0;
#X connect 46 0 59 0;
#X connect 46 0 66 0;
#X connect 47 0 28 0;
#X connect 47 0 59 0;
#X connect 47 0 67 0;
#X connect 48 0 29 0;
#X connect 48 0 59 0;
#X connect 48 0 68 0;
#X connect 49 0 30 0;
#X connect 49 0 59 0;
#X connect 49 0 69 0;
#X connect 50 0 16 0;
#X connect 51 0 0 0;
#X connect 52 0 2 0;
#X connect 53 0 4 0;
#X connect 54 0 6 0;
#X connect 55 0 8 0;
#X connect 56 0 10 0;
#X connect 57 0 12 0;
#X connect 58 0 14 0;
#X connect 59 0 18 1;
#X connect 60 0 18 1;
#X connect 61 0 50 0;
#X connect 61 1 1 0;
#X connect 61 2 3 0;
#X connect 61 3 5 0;
#X connect 61 4 7 0;
#X connect 61 5 9 0;
#X connect 61 6 11 0;
#X connect 61 7 13 0;
#X connect 61 8 15 0;
#X connect 62 0 51 0;
#X connect 62 1 17 0;
#X connect 62 2 3 0;
#X connect 62 3 5 0;
#X connect 62 4 7 0;
#X connect 62 5 9 0;
#X connect 62 6 11 0;
#X connect 62 7 13 0;
#X connect 62 8 15 0;
#X connect 63 0 52 0;
#X connect 63 1 17 0;
#X connect 63 2 1 0;
#X connect 63 3 5 0;
#X connect 63 4 7 0;
#X connect 63 5 9 0;
#X connect 63 6 11 0;
#X connect 63 7 13 0;
#X connect 63 8 15 0;
#X connect 64 0 53 0;
#X connect 64 1 17 0;
#X connect 64 2 1 0;
#X connect 64 3 3 0;
#X connect 64 4 7 0;
#X connect 64 5 9 0;
#X connect 64 6 11 0;
#X connect 64 7 13 0;
#X connect 64 8 15 0;
#X connect 65 0 54 0;
#X connect 65 1 17 0;
#X connect 65 2 1 0;
#X connect 65 3 3 0;
#X connect 65 4 5 0;
#X connect 65 5 9 0;
#X connect 65 6 11 0;
#X connect 65 7 13 0;
#X connect 65 8 15 0;
#X connect 66 0 55 0;
#X connect 66 1 17 0;
#X connect 66 2 1 0;
#X connect 66 3 3 0;
#X connect 66 4 5 0;
#X connect 66 5 7 0;
#X connect 66 6 11 0;
#X connect 66 7 13 0;
#X connect 66 8 15 0;
#X connect 67 0 56 0;
#X connect 67 1 17 0;
#X connect 67 2 1 0;
#X connect 67 3 3 0;
#X connect 67 4 5 0;
#X connect 67 5 7 0;
#X connect 67 6 9 0;
#X connect 67 7 13 0;
#X connect 67 8 15 0;
#X connect 68 0 57 0;
#X connect 68 1 17 0;
#X connect 68 2 1 0;
#X connect 68 3 3 0;
#X connect 68 4 5 0;
#X connect 68 5 7 0;
#X connect 68 6 9 0;
#X connect 68 7 11 0;
#X connect 68 8 15 0;
#X connect 69 0 58 0;
#X connect 69 1 17 0;
#X connect 69 2 1 0;
#X connect 69 3 3 0;
#X connect 69 4 5 0;
#X connect 69 5 7 0;
#X connect 69 6 9 0;
#X connect 69 7 11 0;
#X connect 69 8 13 0;
#X connect 70 0 18 3;
#X coords 0 -1 1 1 240 120 1 5 110;
