#N canvas 323 77 680 465 10;
#X obj 221 299 phasor~ 1;
#X obj 221 340 +~ 0.5;
#X obj 221 360 wrap~;
#X obj 281 390 *~ 40;
#X obj 221 460 *~;
#X obj 142 370 *~ 40;
#X obj 82 460 *~;
#X obj 82 370 -~ 0.5;
#X obj 82 410 *~ -0.5;
#X obj 82 430 cos~;
#X obj 221 390 -~ 0.5;
#X obj 221 410 *~ -0.5;
#X obj 221 430 cos~;
#X text 257 359 wrap within range 0 - 1;
#N canvas 828 143 215 166 frequency 0;
#X obj 4 6 inlet;
#X obj 4 26 - 1;
#X obj 4 66 * -1;
#X text 51 106 segment size in seconds;
#X obj 4 126 outlet;
#X floatatom 14 46 5 0 0 0 - - -, f 5;
#X floatatom 14 86 5 0 0 0 - - -, f 5;
#X text 46 3 pitch factor;
#X obj 4 106 / 0.04;
#X connect 0 0 1 0;
#X connect 1 0 2 0;
#X connect 1 0 5 0;
#X connect 2 0 6 0;
#X connect 2 0 8 0;
#X connect 8 0 4 0;
#X restore 221 239 pd frequency;
#X obj 22 570 outlet~;
#X obj 22 200 inlet~;
#X floatatom 108 110 5 0 0 0 - - -, f 5;
#X floatatom 52 84 5 0 0 0 Pitch - -, f 5;
#X obj 204 89 s \$0f;
#X obj 221 219 r \$0f;
#X text 295 427 segment size 40ms;
#X obj 21 116 hsl 80 10 0 1 0 0 empty empty Mix -2 -8 0 10 -262144
-1 -1 0 1;
#X obj 112 18 inlet;
#X obj 152 18 inlet;
#X obj 18 132 tgl 15 0 empty empty empty 17 7 0 10 -262144 -1 -1 0
1;
#X obj 72 18 inlet;
#X obj 82 510 *~;
#X obj 204 109 s \$0m;
#X obj 133 530 r \$0m;
#X obj 221 259 sig~;
#X obj 32 220 delwrite~ \$0dl 2000;
#X obj 142 410 vd~ \$0dl 40;
#X obj 281 410 vd~ \$0dl 40;
#X obj 43 240 r \$0m;
#X obj 43 260 * -1;
#X obj 43 280 + 1;
#X obj 83 240 r \$0tog;
#X obj 204 129 s \$0tog;
#X obj 137 460 r \$0tog;
#X obj 43 300 expr if($f2==0 \, 1 \, $f1);
#X obj 83 260 t b f;
#X text 290 91 Toggle : 0 or 1;
#X text 290 81 Sound input;
#X text 280 71 INLETS;
#X text 280 131 OUTLETS;
#X text 290 141 Sound output;
#X text 270 41 ------------------;
#X text 270 61 ------------------------------------------------------------
;
#X text 270 34 interface and modifications by Sylvain de Buyser \,
May 2017;
#X text 270 22 by ??? \, ???;
#X text 270 12 PITCH SHIFTER;
#X text 280 51 A simple îtch shifter with filtered signal controls.
;
#X text 290 101 Pitch : the pitch factor \, relatively to the input
sound;
#X text 290 111 Mix : from 0 to 1 \, 0=full input sound \, 1=full pitched
sound;
#X obj 221 279 lop~ 5;
#X obj 137 483 sig~;
#X obj 137 506 lop~ 1;
#X obj 133 553 sig~;
#X obj 133 576 lop~ 1;
#X obj 43 323 sig~;
#X obj 43 346 lop~ 1;
#X obj 22 380 *~;
#X obj 82 550 *~;
#X connect 0 0 1 0;
#X connect 0 0 5 0;
#X connect 0 0 7 0;
#X connect 1 0 2 0;
#X connect 2 0 3 0;
#X connect 2 0 10 0;
#X connect 3 0 33 0;
#X connect 4 0 27 0;
#X connect 5 0 32 0;
#X connect 6 0 27 0;
#X connect 7 0 8 0;
#X connect 8 0 9 0;
#X connect 9 0 6 0;
#X connect 10 0 11 0;
#X connect 11 0 12 0;
#X connect 12 0 4 0;
#X connect 14 0 30 0;
#X connect 16 0 31 0;
#X connect 16 0 62 0;
#X connect 17 0 28 0;
#X connect 18 0 19 0;
#X connect 20 0 14 0;
#X connect 22 0 17 0;
#X connect 23 0 18 0;
#X connect 24 0 22 0;
#X connect 25 0 38 0;
#X connect 26 0 25 0;
#X connect 27 0 63 0;
#X connect 29 0 58 0;
#X connect 30 0 55 0;
#X connect 32 0 6 1;
#X connect 33 0 4 1;
#X connect 34 0 35 0;
#X connect 35 0 36 0;
#X connect 36 0 40 0;
#X connect 37 0 41 0;
#X connect 39 0 56 0;
#X connect 40 0 60 0;
#X connect 41 0 40 0;
#X connect 41 1 40 1;
#X connect 55 0 0 0;
#X connect 56 0 57 0;
#X connect 57 0 27 1;
#X connect 58 0 59 0;
#X connect 59 0 63 1;
#X connect 60 0 61 0;
#X connect 61 0 62 1;
#X connect 62 0 15 0;
#X connect 63 0 15 0;
#X coords 0 -1 1 1 140 100 1 10 50;
