#N canvas 164 143 728 590 10;
#X obj 21 241 inlet~;
#X obj 21 478 outlet~;
#X obj 94 446 *~;
#X obj 124 406 *~;
#X obj 124 426 +~;
#X obj 94 272 *~;
#X obj 42 326 - 1;
#X obj 42 346 abs;
#X obj 113 36 inlet;
#X obj 154 36 inlet;
#X floatatom 154 118 5 0 0 0 - - -, f 5;
#X floatatom 154 88 5 0 0 0 - - -, f 5;
#X obj 14 140 tgl 15 0 empty empty empty 17 7 0 10 -262144 -1 -1 1
1;
#X obj 21 368 *~ 1;
#X obj 73 36 inlet;
#X obj 17 94 hsl 128 10 0 1 0 0 empty empty Depth -2 -8 0 10 -262144
-1 -1 12700 1;
#X obj 17 124 hsl 128 10 1 6 0 0 empty empty Rate -2 -8 0 10 -262144
-1 -1 11600 1;
#X obj 111 205 outlet;
#X obj 154 205 outlet;
#X obj 154 164 pow -1;
#X obj 154 184 * 1000;
#X obj 201 88 s \$0d;
#X obj 224 386 r \$0d;
#X obj 202 137 s \$0tog;
#X obj 109 242 r \$0tog;
#X obj 42 306 r \$0tog;
#X obj 202 117 s \$0r;
#X obj 124 266 r \$0r;
#X text 300 113 Toggle : 0 or 1;
#X text 300 103 Sound input;
#X text 290 93 INLETS;
#X text 290 153 OUTLETS;
#X text 300 163 Sound output;
#X text 300 173 Toggle : 0 or 1;
#X text 280 63 ------------------;
#X text 280 83 ------------------------------------------------------------
;
#X text 280 22 TREMOLO;
#X text 280 44 (based on a suggestion by "mod" \, Pure Data Forum \,
2011);
#X text 280 32 by Pierre Massat \, GuitarExtended \, 2012;
#X text 280 56 interface and modifications by Sylvain de Buyser \,
May 2017;
#X text 290 73 A simple tremolo with filtered signal controls.;
#X obj 124 286 sig~;
#X obj 124 306 lop~ 1;
#X obj 224 446 expr~ 1-$v1;
#X obj 224 406 sig~;
#X obj 224 426 lop~ 1;
#X obj 194 36 loadbang;
#X text 300 123 Depth : from 0 to 1;
#X text 300 133 Rate : from 1 to 6Hz;
#X text 300 183 Time : from 166 to 1000ms;
#X obj 125 333 phasor~;
#X obj 125 356 expr~ if($v1<0.5 \, 0 \, 1);
#X obj 126 379 lop~ 10;
#X connect 0 0 5 0;
#X connect 0 0 13 0;
#X connect 2 0 1 0;
#X connect 3 0 4 0;
#X connect 4 0 2 1;
#X connect 5 0 2 0;
#X connect 6 0 7 0;
#X connect 7 0 13 1;
#X connect 8 0 15 0;
#X connect 9 0 16 0;
#X connect 10 0 19 0;
#X connect 10 0 26 0;
#X connect 11 0 21 0;
#X connect 12 0 17 0;
#X connect 12 0 23 0;
#X connect 13 0 1 0;
#X connect 14 0 12 0;
#X connect 15 0 11 0;
#X connect 16 0 10 0;
#X connect 19 0 20 0;
#X connect 20 0 18 0;
#X connect 22 0 44 0;
#X connect 24 0 5 1;
#X connect 25 0 6 0;
#X connect 27 0 41 0;
#X connect 41 0 42 0;
#X connect 42 0 50 0;
#X connect 43 0 4 1;
#X connect 44 0 45 0;
#X connect 45 0 43 0;
#X connect 45 0 3 1;
#X connect 46 0 15 0;
#X connect 46 0 16 0;
#X connect 50 0 51 0;
#X connect 51 0 52 0;
#X connect 52 0 3 0;
#X coords 0 -1 1 1 180 100 1 10 60;
