#N canvas 223 54 448 481 10;
#X obj 14 11 inlet~;
#X obj 64 71 hip~ 5;
#X obj 64 91 env~ 8192;
#X obj 204 131 > \$2;
#X obj 124 131 > \$1;
#X obj 154 131 <= \$2;
#X obj 64 131 <= \$1;
#X obj 124 151 &;
#X obj 64 221 tgl 15 0 empty empty empty 17 7 0 10 -262144 -1 -1 1
1;
#X obj 124 221 tgl 15 0 empty empty empty 17 7 0 10 -262144 -1 -1 0
1;
#X obj 204 221 tgl 15 0 empty empty empty 17 7 0 10 -262144 -1 -1 0
1;
#X obj 204 151 change;
#X obj 124 171 change;
#X obj 204 241 outlet;
#X obj 124 241 outlet;
#X obj 35 31 inlet;
#X obj 14 51 *~ 1;
#X obj 14 241 outlet~;
#X connect 0 0 16 0;
#X connect 1 0 2 0;
#X connect 2 0 4 0;
#X connect 2 0 3 0;
#X connect 2 0 6 0;
#X connect 2 0 5 0;
#X connect 3 0 11 0;
#X connect 4 0 7 0;
#X connect 5 0 7 1;
#X connect 6 0 8 0;
#X connect 7 0 12 0;
#X connect 9 0 14 0;
#X connect 10 0 13 0;
#X connect 11 0 10 0;
#X connect 12 0 9 0;
#X connect 15 0 16 1;
#X connect 16 0 1 0;
#X connect 16 0 17 0;
