#N canvas 272 71 720 708 10;
#X msg 549 335 0;
#X obj 504 364 osc~ 0.5;
#X obj 504 475 *~;
#X obj 504 394 +~ 2;
#X msg 137 341 0.35;
#X obj 84 363 osc~ 0.2;
#X obj 84 392 +~ 2;
#X obj 84 474 *~;
#X obj 27 535 inlet~;
#X obj 369 366 osc~ 0.5;
#X obj 369 423 *~ 2;
#X obj 369 474 *~;
#X obj 369 395 +~ 2;
#X msg 422 338 0.75;
#X obj 84 419 *~ 2;
#X obj 504 422 *~ 2;
#X obj 224 364 osc~ 0.5;
#X obj 224 421 *~ 2;
#X obj 224 472 *~;
#X obj 224 393 +~ 2;
#X msg 277 341 0.65;
#X obj 260 679 outlet~;
#X obj 327 255 loadbang;
#X obj 158 26 inlet;
#X obj 119 26 inlet;
#X obj 84 504 vd~ \$0_chorus;
#X obj 224 503 vd~ \$0_chorus;
#X obj 369 505 vd~ \$0_chorus;
#X obj 504 503 vd~ \$0_chorus;
#X obj 27 578 delwrite~ \$0_chorus 2000;
#X obj 15 130 tgl 15 0 empty empty empty 17 7 0 10 -262144 -1 -1 0
1;
#X obj 18 84 hsl 128 10 0 50 0 0 empty empty Depth -2 -8 0 10 -262144
-1 -1 1400 1;
#X obj 18 114 hsl 128 10 0.1 6 0 0 empty empty Speed -2 -8 0 10 -262144
-1 -1 3912 1;
#X obj 79 26 inlet;
#X obj 259 582 *~;
#X floatatom 153 78 5 0 0 0 - - -, f 5;
#X floatatom 153 108 5 0 0 0 - - -, f 5;
#X obj 503 214 outlet;
#X obj 559 254 outlet;
#X obj 559 214 pow -1;
#X obj 559 234 * 1000;
#X obj 199 98 s \$0d;
#X obj 199 118 s \$0s;
#X obj 15 158 s \$0tog;
#X obj 264 235 sig~;
#X obj 264 215 r \$0s;
#X obj 264 255 lop~ 1;
#X obj 410 404 r \$0d;
#X obj 410 424 sig~;
#X obj 410 444 lop~ 1;
#X obj 277 534 r \$0tog;
#X obj 503 194 r \$0tog;
#X obj 559 194 r \$0s;
#X text 360 91 Toggle : 0 or 1;
#X text 360 81 Sound input;
#X text 350 71 INLETS;
#X text 350 131 OUTLETS;
#X text 360 141 Sound output;
#X text 360 151 Toggle : 0 or 1;
#X text 340 41 ------------------;
#X text 340 61 ------------------------------------------------------------
;
#X text 340 34 interface and modifications by Sylvain de Buyser \,
May 2017;
#X text 340 22 by ??? \, ???;
#X text 350 51 A simple chorus with filtered signal controls.;
#X obj 198 26 loadbang;
#X text 360 111 Speed : from 0.1 to 6Hz;
#X text 360 101 Depth : from 0 to 50;
#X text 360 161 Time : from 166 to 10000ms;
#X text 340 12 CHORUS;
#X obj 89 611 r \$0tog;
#X obj 89 634 expr if($f1==0 \, 1 \, 0.5);
#X obj 64 657 *~ 1;
#X obj 224 334 *~ 0.2;
#X obj 369 336 *~ 0.3;
#X obj 84 535 *~ 0.25;
#X obj 224 535 *~ 0.25;
#X obj 369 538 *~ 0.25;
#X obj 504 535 *~ 0.25;
#X connect 0 0 1 1;
#X connect 1 0 3 0;
#X connect 2 0 28 0;
#X connect 3 0 15 0;
#X connect 4 0 5 1;
#X connect 5 0 6 0;
#X connect 6 0 14 0;
#X connect 7 0 25 0;
#X connect 8 0 29 0;
#X connect 8 0 71 0;
#X connect 9 0 12 0;
#X connect 10 0 11 0;
#X connect 11 0 27 0;
#X connect 12 0 10 0;
#X connect 13 0 9 1;
#X connect 14 0 7 0;
#X connect 15 0 2 0;
#X connect 16 0 19 0;
#X connect 17 0 18 0;
#X connect 18 0 26 0;
#X connect 19 0 17 0;
#X connect 20 0 16 1;
#X connect 22 0 4 0;
#X connect 22 0 0 0;
#X connect 22 0 13 0;
#X connect 22 0 20 0;
#X connect 23 0 32 0;
#X connect 24 0 31 0;
#X connect 25 0 74 0;
#X connect 26 0 75 0;
#X connect 27 0 76 0;
#X connect 28 0 77 0;
#X connect 30 0 43 0;
#X connect 31 0 35 0;
#X connect 32 0 36 0;
#X connect 33 0 30 0;
#X connect 34 0 21 0;
#X connect 35 0 41 0;
#X connect 36 0 42 0;
#X connect 39 0 40 0;
#X connect 40 0 38 0;
#X connect 44 0 46 0;
#X connect 45 0 44 0;
#X connect 46 0 5 0;
#X connect 46 0 1 0;
#X connect 46 0 72 0;
#X connect 46 0 73 0;
#X connect 47 0 48 0;
#X connect 48 0 49 0;
#X connect 49 0 11 1;
#X connect 49 0 2 1;
#X connect 49 0 18 1;
#X connect 49 0 7 1;
#X connect 50 0 34 1;
#X connect 51 0 37 0;
#X connect 52 0 39 0;
#X connect 64 0 31 0;
#X connect 64 0 32 0;
#X connect 69 0 70 0;
#X connect 70 0 71 1;
#X connect 71 0 21 0;
#X connect 72 0 16 0;
#X connect 73 0 9 0;
#X connect 74 0 34 0;
#X connect 75 0 34 0;
#X connect 76 0 34 0;
#X connect 77 0 34 0;
#X coords 0 -1 1 1 180 100 1 10 50;
