#N canvas 406 58 734 485 10;
#X obj 257 75 \$3;
#X obj 287 75 \$4;
#X floatatom 203 232 5 0 0 0 - - -, f 5;
#X obj 202 265 outlet;
#X obj 3 76 ctlin \$2 \$1;
#X obj 230 75 \$5;
#X obj 206 218 hsl 138 10 400 4500 0 0 empty \$0midi_slr empty -2 -8
0 10 -262144 -1 -1 0 1;
#X obj 242 101 f;
#X obj 3 124 expr ($f1-$f2)*($f4-$f5)/($f2-$f3)+$f4;
#X msg 59 104 0;
#X msg 115 102 127;
#X obj 315 75 \$0;
#X obj 238 42 t b b b b b;
#X obj 242 124 pack 0 0 0;
#X msg 242 149 \; \$3midi_slr range \$1 \$2;
#X text 404 88 \$4 is the highest value;
#X text 404 62 \$2 is the MIDI control;
#X text 404 49 \$1 is the MIDI channel;
#X text 404 101 \$5 is the initial value;
#X text 404 75 \$3 is the lowest value;
#X text 404 7 MIDI potentiometer control;
#X text 414 19 Map the O-127 values of the input to the;
#X text 414 30 wanted ones and set an initial value;
#X text 404 39 ------------------------------------------;
#X obj 117 367 loadbang;
#X obj 238 18 loadbang;
#X connect 0 0 7 1;
#X connect 0 0 8 3;
#X connect 1 0 8 4;
#X connect 1 0 13 1;
#X connect 2 0 3 0;
#X connect 4 0 8 0;
#X connect 5 0 6 0;
#X connect 6 0 2 0;
#X connect 7 0 13 0;
#X connect 8 0 6 0;
#X connect 9 0 8 1;
#X connect 10 0 8 2;
#X connect 11 0 13 2;
#X connect 12 0 5 0;
#X connect 12 1 7 0;
#X connect 12 2 0 0;
#X connect 12 3 1 0;
#X connect 12 4 11 0;
#X connect 13 0 14 0;
#X connect 25 0 12 0;
#X connect 25 0 10 0;
#X connect 25 0 9 0;
#X coords 0 -1 1 1 150 55 1 200 200;
