#N canvas 688 62 643 636 10;
#X obj 206 485 outlet;
#X obj 145 79 delay \$7;
#X obj 17 35 mi_bng \$1;
#X obj 77 35 mi_bng \$2;
#X obj 137 35 mi_bng \$3;
#X obj 197 35 mi_bng \$4;
#X obj 257 35 mi_bng \$5;
#X obj 317 35 mi_bng \$6;
#X msg 145 101 -1;
#N canvas 0 22 450 278 (subpatch) 0;
#X array \$0seq 6 float 2;
#X coords 0 1 6 -1 200 140 1;
#X restore 413 38 graph;
#X obj 563 228 symbol \$0seq;
#X obj 17 301 expr $s2[0]=$f1;
#X obj 77 281 expr $s2[1]=$f1;
#X obj 137 260 expr $s2[2]=$f1;
#X obj 197 239 expr $s2[3]=$f1;
#X obj 257 217 expr $s2[4]=$f1;
#X obj 344 189 expr $s2[5]=$f1;
#X obj 563 208 loadbang;
#X obj 538 211 bng 15 250 50 0 empty empty empty 17 7 0 10 -262144
-1 -1;
#X obj 145 121 t b f;
#X floatatom 206 422 5 0 0 0 - - -, f 5;
#X obj 206 442 t b f;
#X obj 206 463 spigot;
#X obj 189 485 bng 15 250 50 0 empty empty empty 17 7 0 10 -262144
-1 -1;
#X obj 317 56 t b b;
#X obj 206 379 expr ($s2[0]==\$1)&&($s2[1]==\$2)&&($s2[2]==\$3)&&($s2[3]==\$4)&&($s2[4]==\$5)&&($s2[5]==\$6)
;
#X obj 344 169 f \$6;
#X obj 257 165 f \$5;
#X obj 197 168 f \$4;
#X obj 137 171 f \$3;
#X obj 77 171 f \$2;
#X obj 17 171 f \$1;
#X connect 1 0 8 0;
#X connect 2 0 1 0;
#X connect 2 0 31 0;
#X connect 3 0 1 0;
#X connect 3 0 30 0;
#X connect 4 0 1 0;
#X connect 4 0 29 0;
#X connect 5 0 1 0;
#X connect 5 0 28 0;
#X connect 6 0 1 0;
#X connect 6 0 27 0;
#X connect 7 0 1 0;
#X connect 7 0 24 0;
#X connect 8 0 19 0;
#X connect 10 0 11 1;
#X connect 10 0 12 1;
#X connect 10 0 13 1;
#X connect 10 0 14 1;
#X connect 10 0 15 1;
#X connect 10 0 16 1;
#X connect 10 0 25 1;
#X connect 17 0 10 0;
#X connect 18 0 10 0;
#X connect 19 0 25 0;
#X connect 19 1 11 0;
#X connect 19 1 12 0;
#X connect 19 1 13 0;
#X connect 19 1 14 0;
#X connect 19 1 15 0;
#X connect 19 1 16 0;
#X connect 20 0 21 0;
#X connect 21 0 22 0;
#X connect 21 1 22 1;
#X connect 22 0 0 0;
#X connect 22 0 23 0;
#X connect 24 0 25 0;
#X connect 24 1 26 0;
#X connect 25 0 20 0;
#X connect 26 0 16 0;
#X connect 27 0 15 0;
#X connect 28 0 14 0;
#X connect 29 0 13 0;
#X connect 30 0 12 0;
#X connect 31 0 11 0;
