#N canvas 688 61 629 334 10;
#X floatatom 70 31 5 0 0 0 - - -;
#X obj 24 226 spigot;
#X obj 24 267 outlet;
#X obj 70 76 == 0;
#X obj 140 76 > 0;
#X floatatom 80 120 5 0 0 0 - - -;
#X floatatom 150 120 5 0 0 0 - - -;
#X obj 140 141 spigot;
#X obj 70 141 spigot;
#X floatatom 24 31 5 0 0 0 - - -;
#X floatatom 34 166 5 0 0 0 - - -;
#X obj 24 141 == \$1;
#X obj 24 4 notein 1;
#X msg 140 198 1;
#X msg 70 198 0;
#X obj 70 52 t f f;
#X obj 140 98 t b f;
#X obj 70 98 t b f;
#X obj 35 247 tgl 15 0 empty empty empty 17 7 0 10 -262144 -1 -1 0
1;
#X obj 140 160 bng 15 250 50 0 empty empty empty 17 7 0 10 -262144
-1 -1;
#X obj 140 178 delay 1;
#X obj 70 160 bng 15 250 50 0 empty empty empty 17 7 0 10 -262144 -1
-1;
#X obj 70 178 delay 1;
#X connect 0 0 15 0;
#X connect 1 0 2 0;
#X connect 1 0 18 0;
#X connect 3 0 17 0;
#X connect 4 0 16 0;
#X connect 5 0 8 1;
#X connect 6 0 7 1;
#X connect 7 0 19 0;
#X connect 8 0 21 0;
#X connect 9 0 11 0;
#X connect 11 0 10 0;
#X connect 11 0 1 1;
#X connect 12 0 9 0;
#X connect 12 1 0 0;
#X connect 13 0 1 0;
#X connect 14 0 1 0;
#X connect 15 0 3 0;
#X connect 15 1 4 0;
#X connect 16 0 7 0;
#X connect 16 1 6 0;
#X connect 17 0 8 0;
#X connect 17 1 5 0;
#X connect 19 0 20 0;
#X connect 20 0 13 0;
#X connect 21 0 22 0;
#X connect 22 0 14 0;
