#N canvas 331 229 589 450 10;
#X obj 202 200 bng 15 250 50 0 empty empty empty 17 7 0 10 -262144
-1 -1;
#X obj 202 250 bng 15 250 50 0 empty empty empty 17 7 0 10 -262144
-1 -1;
#X msg 220 198 stop;
#X obj 202 272 tgl 15 0 empty empty empty 17 7 0 10 -262144 -1 -1 0
1;
#X obj 265 272 tgl 15 0 empty empty empty 17 7 0 10 -262144 -1 -1 1
1;
#X obj 202 343 t b b;
#X obj 265 343 t b b;
#X msg 292 369 127;
#X msg 229 369 0;
#X obj 202 304 spigot;
#X obj 265 304 spigot;
#X obj 202 168 spigot;
#X obj 297 138 spigot;
#X obj 330 98 - 1;
#X obj 330 118 abs;
#X obj 297 158 t b b b;
#X obj 202 27 inlet;
#X obj 276 27 inlet;
#X obj 53 72 bng 15 250 50 0 empty empty empty 17 7 0 10 -262144 -1
-1;
#X obj 35 164 loadbang;
#X obj 35 186 t b b b;
#X msg 74 211 1;
#X obj 202 225 metro 500;
#X obj 54 232 \$1;
#X obj 202 67 t b f b f;
#X obj 72 72 tgl 15 0 empty empty empty 17 7 0 10 -262144 -1 -1 1 1
;
#X obj 214 413 noteout 2;
#X obj 266 97 max 200;
#X obj 276 68 * 1;
#X connect 0 0 22 0;
#X connect 1 0 3 0;
#X connect 1 0 4 0;
#X connect 2 0 22 0;
#X connect 3 0 9 1;
#X connect 3 0 9 0;
#X connect 4 0 10 1;
#X connect 4 0 10 0;
#X connect 5 0 23 0;
#X connect 5 1 8 0;
#X connect 6 0 23 0;
#X connect 6 1 7 0;
#X connect 7 0 26 1;
#X connect 8 0 26 1;
#X connect 9 0 5 0;
#X connect 10 0 6 0;
#X connect 11 0 0 0;
#X connect 12 0 15 0;
#X connect 13 0 14 0;
#X connect 14 0 12 1;
#X connect 15 0 23 0;
#X connect 15 1 8 0;
#X connect 15 2 2 0;
#X connect 16 0 24 0;
#X connect 17 0 28 0;
#X connect 19 0 20 0;
#X connect 20 1 23 0;
#X connect 20 2 21 0;
#X connect 21 0 3 0;
#X connect 22 0 1 0;
#X connect 22 0 18 0;
#X connect 22 0 25 0;
#X connect 23 0 26 0;
#X connect 24 0 11 0;
#X connect 24 1 11 1;
#X connect 24 2 12 0;
#X connect 24 3 13 0;
#X connect 27 0 22 1;
#X connect 28 0 27 0;
#X coords 0 -1 1 1 80 40 1 10 50;
