#N canvas 2 107 1009 708 10;
#X obj 19 202 inlet~;
#X obj 19 771 outlet~;
#X obj 470 416 wrap~;
#X obj 230 351 phasor~;
#X obj 470 396 +~ 0.5;
#X obj 230 436 cos~;
#X obj 470 436 cos~;
#X obj 15 160 tgl 15 0 empty empty empty 17 7 0 10 -262144 -1 -1 1
1;
#X obj 84 21 inlet;
#X obj 120 21 inlet;
#X obj 156 21 inlet;
#X obj 48 21 inlet;
#X obj 18 113 hsl 128 10 0 5 0 0 empty empty Depth -2 -8 0 10 -262144
-1 -1 12700 1;
#X obj 18 83 hsl 128 10 0.1 10 0 0 empty empty Speed -2 -8 0 10 -262144
-1 -1 2528 1;
#X obj 18 143 hsl 128 10 -1 1 0 0 empty empty Feedback -2 -8 0 10 -262144
-1 -1 63 1;
#X floatatom 153 77 5 0 0 0 - - -, f 5;
#X floatatom 153 107 5 0 0 0 - - -, f 5;
#X floatatom 153 137 5 0 0 0 - - -, f 5;
#X obj 332 96 outlet;
#X obj 392 96 outlet;
#X obj 192 21 loadbang;
#X obj 332 36 r \$0tog;
#X obj 392 36 r \$0s;
#X obj 193 76 s \$0s;
#X obj 193 106 s \$0d;
#X obj 193 136 s \$0f;
#X obj 193 166 s \$0tog;
#X obj 48 449 r \$0tog;
#X obj 78 225 r \$0tog;
#X obj 230 516 vd~ \$0phase1;
#X obj 470 516 vd~ \$0phase2;
#X obj 470 576 delwrite~ \$0phase2 100;
#X obj 230 576 delwrite~ \$0phase1 100;
#X obj 230 291 r \$0s;
#X obj 230 311 sig~;
#X obj 230 331 lop~ 1;
#X obj 330 401 r \$0d;
#X obj 330 421 sig~;
#X obj 330 441 lop~ 1;
#X obj 470 466 *~;
#X obj 470 496 +~;
#X obj 230 466 *~;
#X obj 230 496 +~;
#X obj 330 475 r \$0f;
#X obj 330 495 sig~;
#X obj 330 515 lop~ 1;
#X obj 470 546 *~;
#X obj 230 546 *~;
#X text 490 102 Toggle : 0 or 1;
#X text 490 92 Sound input;
#X text 480 82 INLETS;
#X text 480 152 OUTLETS;
#X text 490 162 Sound output;
#X text 490 172 Toggle : 0 or 1;
#X text 470 52 ------------------;
#X text 470 72 ------------------------------------------------------------
;
#X text 470 22 PHASER;
#X text 470 32 by ??? \, ???;
#X text 470 42 interface and modifications by Sylvain de Buyser \,
May 2017;
#X text 480 62 A simple phaser with filtered signal controls.;
#X text 490 112 Speed : from 0 to 10Hz;
#X obj 392 56 pow -1;
#X obj 392 76 * 1000;
#X text 490 122 Depth : from 0 to 5;
#X text 490 132 Feedback : from -0.9 to 0.9;
#X text 490 182 Time : from 100 to 10000ms;
#X obj 78 247 expr if($f1==0 \, 1 \, 0.5);
#X obj 78 270 sig~;
#X obj 79 293 lop~ 1;
#X obj 19 320 *~;
#X obj 48 472 expr if($f1==0 \, 0 \, 0.5);
#X obj 48 495 sig~;
#X obj 48 518 lop~ 1;
#X obj 29 570 *~;
#X obj 46 596 r \$0f;
#X obj 28 737 *~;
#X obj 46 642 sig~;
#X obj 46 665 lop~ 1;
#X floatatom 117 653 5 0 0 0 - - -, f 5;
#X obj 46 619 expr if(abs($f1)>0.8 \, (1*abs($f1)/10) \, 1);
#X connect 0 0 69 0;
#X connect 0 0 32 0;
#X connect 0 0 31 0;
#X connect 2 0 6 0;
#X connect 3 0 4 0;
#X connect 3 0 5 0;
#X connect 4 0 2 0;
#X connect 5 0 41 0;
#X connect 6 0 39 0;
#X connect 7 0 26 0;
#X connect 8 0 13 0;
#X connect 9 0 12 0;
#X connect 10 0 14 0;
#X connect 11 0 7 0;
#X connect 12 0 16 0;
#X connect 13 0 15 0;
#X connect 14 0 17 0;
#X connect 15 0 23 0;
#X connect 16 0 24 0;
#X connect 17 0 25 0;
#X connect 20 0 13 0;
#X connect 20 0 12 0;
#X connect 20 0 14 0;
#X connect 21 0 18 0;
#X connect 22 0 61 0;
#X connect 27 0 70 0;
#X connect 28 0 66 0;
#X connect 29 0 47 0;
#X connect 29 0 73 0;
#X connect 30 0 46 0;
#X connect 30 0 73 0;
#X connect 33 0 34 0;
#X connect 34 0 35 0;
#X connect 35 0 3 0;
#X connect 36 0 37 0;
#X connect 37 0 38 0;
#X connect 38 0 39 1;
#X connect 38 0 40 1;
#X connect 38 0 41 1;
#X connect 38 0 42 1;
#X connect 39 0 40 0;
#X connect 40 0 30 0;
#X connect 41 0 42 0;
#X connect 42 0 29 0;
#X connect 43 0 44 0;
#X connect 44 0 45 0;
#X connect 45 0 46 1;
#X connect 45 0 47 1;
#X connect 46 0 31 0;
#X connect 47 0 32 0;
#X connect 61 0 62 0;
#X connect 62 0 19 0;
#X connect 66 0 67 0;
#X connect 67 0 68 0;
#X connect 68 0 69 1;
#X connect 69 0 1 0;
#X connect 70 0 71 0;
#X connect 71 0 72 0;
#X connect 72 0 73 1;
#X connect 73 0 75 0;
#X connect 74 0 79 0;
#X connect 75 0 1 0;
#X connect 76 0 77 0;
#X connect 77 0 75 1;
#X connect 79 0 76 0;
#X connect 79 0 78 0;
#X coords 0 -1 1 1 180 130 1 10 50;
