#N canvas 443 91 707 643 10;
#X obj 19 103 hsl 70 10 0.33 3 0 0 empty empty Pitch -2 -8 0 10 -262144
-1 -1 1691 1;
#X obj 19 133 hsl 70 10 0 1 0 0 empty empty Speed_Depth -2 -8 0 10
-262144 -1 -1 108 1;
#X obj 59 15 inlet;
#X obj 99 15 inlet;
#X obj 12 165 inlet~;
#X obj 89 322 loadbang;
#X msg 99 342 0;
#X msg 69 342 1;
#X obj 12 518 outlet~;
#X obj 185 384 log;
#X obj 185 342 * 200;
#X obj 185 363 + 1;
#X floatatom 96 97 5 0 0 0 - - -, f 5;
#X floatatom 96 127 5 0 0 0 - - -, f 5;
#X obj 12 414 tremolo;
#X obj 151 95 s \$0p;
#X obj 151 125 s \$0sd;
#X obj 160 322 r \$0sd;
#X obj 62 165 loadbang;
#X obj 122 165 r \$0p;
#X msg 62 185 1;
#X msg 145 185 1;
#X obj 12 215 pitch_shifter;
#X connect 0 0 12 0;
#X connect 1 0 13 0;
#X connect 2 0 0 0;
#X connect 3 0 1 0;
#X connect 4 0 22 0;
#X connect 5 0 6 0;
#X connect 5 0 7 0;
#X connect 6 0 14 2;
#X connect 7 0 14 1;
#X connect 7 0 14 3;
#X connect 9 0 14 3;
#X connect 10 0 11 0;
#X connect 11 0 9 0;
#X connect 12 0 15 0;
#X connect 13 0 16 0;
#X connect 14 0 8 0;
#X connect 17 0 14 2;
#X connect 17 0 10 0;
#X connect 18 0 20 0;
#X connect 18 0 21 0;
#X connect 19 0 22 2;
#X connect 20 0 22 1;
#X connect 21 0 22 3;
#X connect 22 0 14 0;
#X coords 0 -1 1 1 125 100 1 10 50;
