#N canvas 247 311 993 439 10;
#X obj 10 189 writesf~ 1;
#X obj 164 42 bng 15 250 50 0 empty empty empty 17 7 0 10 -262144 -1
-1;
#X msg 164 182 start;
#X msg 93 101 stop;
#X obj 164 203 bng 15 250 50 0 empty empty empty 17 7 0 10 -262144
-1 -1;
#X obj 164 242 s \$0end;
#X obj 93 81 r \$0end;
#X obj 60 11 inlet;
#X obj 164 60 t b b;
#X obj 93 121 t b a;
#X msg 27 104 stop;
#X obj 10 11 inlet~;
#X obj 60 31 bang;
#X obj 100 11 inlet;
#X obj 100 31 bang;
#X obj 191 80 t b b b;
#X obj 191 100 \$1;
#X obj 238 188 \$2;
#X obj 238 208 * 60000;
#X obj 164 222 delay;
#X obj 238 168 loadbang;
#X msg 191 141 open \$1.wav;
#X msg 234 101 rec;
#X obj 191 121 pack f symbol f;
#X obj 273 80 0;
#X obj 312 80 + 1;
#X obj 273 101 t f f;
#X connect 1 0 8 0;
#X connect 2 0 0 0;
#X connect 2 0 4 0;
#X connect 3 0 9 0;
#X connect 4 0 19 0;
#X connect 6 0 3 0;
#X connect 7 0 12 0;
#X connect 8 0 2 0;
#X connect 8 1 15 0;
#X connect 9 0 8 0;
#X connect 9 1 0 0;
#X connect 10 0 0 0;
#X connect 10 0 19 0;
#X connect 11 0 0 0;
#X connect 12 0 1 0;
#X connect 13 0 14 0;
#X connect 14 0 10 0;
#X connect 15 0 16 0;
#X connect 15 1 22 0;
#X connect 15 2 24 0;
#X connect 16 0 23 0;
#X connect 17 0 18 0;
#X connect 18 0 19 1;
#X connect 19 0 5 0;
#X connect 20 0 17 0;
#X connect 21 0 0 0;
#X connect 22 0 23 1;
#X connect 24 0 26 0;
#X connect 25 0 24 1;
#X connect 26 0 25 0;
#X connect 26 1 23 2;
