#N canvas 272 145 659 692 10;
#X obj 21 81 hsl 80 10 50 1000 0 0 empty empty Time -2 -8 0 10 -262144
-1 -1 7900 1;
#X obj 10 496 bng 15 250 50 0 empty empty empty 17 7 0 10 -262144 -1
-1;
#X obj 10 515 outlet;
#X obj 60 496 bng 15 250 50 0 empty empty empty 17 7 0 10 -262144 -1
-1;
#X obj 60 515 outlet;
#X obj 110 496 bng 15 250 50 0 empty empty empty 17 7 0 10 -262144
-1 -1;
#X obj 110 515 outlet;
#X obj 160 496 bng 15 250 50 0 empty empty empty 17 7 0 10 -262144
-1 -1;
#X obj 160 515 outlet;
#X obj 210 496 bng 15 250 50 0 empty empty empty 17 7 0 10 -262144
-1 -1;
#X obj 210 515 outlet;
#X obj 260 496 bng 15 250 50 0 empty empty empty 17 7 0 10 -262144
-1 -1;
#X obj 260 515 outlet;
#X obj 310 496 bng 15 250 50 0 empty empty empty 17 7 0 10 -262144
-1 -1;
#X obj 310 515 outlet;
#X obj 360 496 bng 15 250 50 0 empty empty empty 17 7 0 10 -262144
-1 -1;
#X obj 360 515 outlet;
#X obj 10 269 metro;
#X obj 10 289 bng 15 250 50 0 empty empty empty 17 7 0 10 -262144 -1
-1;
#X obj 10 379 + 1;
#X obj 10 358 int 0;
#X obj 10 421 mod 8;
#X floatatom 23 443 5 0 0 0 - - -;
#X floatatom 23 400 5 0 0 0 - - -;
#X obj 65 309 == 0;
#X floatatom 76 333 5 0 0 0 - - -;
#X msg 20 310 0;
#X obj 20 333 spigot 1;
#X obj 76 356 change;
#X obj 10 462 route 0 1 2 3 4 5 6 7;
#X obj 19 110 hradio 15 1 0 8 empty empty n_Steps 0 -8 0 10 -262144
-1 -1 0;
#X obj 19 160 + 1;
#X obj 60 11 inlet;
#X obj 170 52 - 1;
#X obj 20 11 inlet;
#X obj 72 129 tgl 15 0 empty empty empty 17 7 0 10 -262144 -1 -1 0
1;
#X floatatom 108 78 5 0 0 0 - - -;
#X floatatom 19 187 5 0 0 0 - - -;
#X obj 200 72 change;
#X obj 200 52 != 1;
#X obj 200 92 t f b;
#X obj 106 11 loadbang;
#X obj 158 77 s \$0t;
#X obj 158 157 s \$0n;
#X obj 158 137 s \$0tog;
#X obj 10 229 r \$0tog;
#X obj 37 249 r \$0t;
#X obj 63 402 r \$0n;
#X obj 190 11 inlet;
#X obj 190 31 i;
#X text 300 81 Toggle : 0 or 1;
#X text 300 71 Sound input;
#X text 290 61 INLETS;
#X text 290 121 OUTLETS;
#X text 280 31 ------------------;
#X text 280 51 ------------------------------------------------------------
;
#X text 280 12 SEQUENCER;
#X text 280 24 by Sylvain de Buyser \, May 2017;
#X text 290 41 A simple 8-step sequencer.;
#X text 300 91 Time : from 50 to 1000ms \, time between steps;
#X text 300 101 n_steps : from 0 to 7 \, number of steps;
#X text 300 131 8 bangs;
#X connect 0 0 36 0;
#X connect 1 0 2 0;
#X connect 3 0 4 0;
#X connect 5 0 6 0;
#X connect 7 0 8 0;
#X connect 9 0 10 0;
#X connect 11 0 12 0;
#X connect 13 0 14 0;
#X connect 15 0 16 0;
#X connect 17 0 18 0;
#X connect 18 0 20 0;
#X connect 19 0 20 1;
#X connect 19 0 21 0;
#X connect 19 0 23 0;
#X connect 20 0 19 0;
#X connect 21 0 22 0;
#X connect 21 0 29 0;
#X connect 22 0 24 0;
#X connect 24 0 25 0;
#X connect 24 0 27 1;
#X connect 25 0 28 0;
#X connect 26 0 27 0;
#X connect 27 0 20 0;
#X connect 28 0 26 0;
#X connect 29 0 1 0;
#X connect 29 1 3 0;
#X connect 29 2 5 0;
#X connect 29 3 7 0;
#X connect 29 4 9 0;
#X connect 29 5 11 0;
#X connect 29 6 13 0;
#X connect 29 7 15 0;
#X connect 30 0 31 0;
#X connect 31 0 37 0;
#X connect 31 0 43 0;
#X connect 32 0 0 0;
#X connect 33 0 30 0;
#X connect 34 0 35 0;
#X connect 35 0 44 0;
#X connect 36 0 42 0;
#X connect 38 0 40 0;
#X connect 39 0 38 0;
#X connect 40 0 35 0;
#X connect 40 1 1 0;
#X connect 41 0 0 0;
#X connect 41 0 30 0;
#X connect 45 0 17 0;
#X connect 46 0 17 1;
#X connect 47 0 21 1;
#X connect 48 0 49 0;
#X connect 49 0 33 0;
#X connect 49 0 39 0;
#X coords 0 -1 1 1 135 100 1 10 50;
