#N canvas 334 189 450 300 10;
#X obj 20 17 inlet~;
#X floatatom 29 82 5 0 0 0 - - -, f 5;
#X obj 129 147 change;
#X obj 29 154 phasor~;
#X obj 19 241 *~;
#X obj 19 264 outlet~;
#X obj 29 175 lop~ \$1;
#X obj 29 134 mtof;
#X msg 129 239 1 50;
#X obj 129 166 t b b;
#X obj 129 265 line~;
#X msg 189 193 stop;
#X msg 189 237 0 1000;
#X obj 189 216 delay 2000;
#X obj 30 41 sigmund~ -hop 512 -npts 512 notes;
#X obj 29 61 expr int($f1-48);
#X connect 0 0 14 0;
#X connect 0 0 4 0;
#X connect 1 0 2 0;
#X connect 1 0 7 0;
#X connect 2 0 9 0;
#X connect 3 0 6 0;
#X connect 4 0 5 0;
#X connect 7 0 3 0;
#X connect 8 0 10 0;
#X connect 9 0 8 0;
#X connect 9 0 13 0;
#X connect 9 1 11 0;
#X connect 10 0 4 1;
#X connect 11 0 13 0;
#X connect 12 0 10 0;
#X connect 13 0 12 0;
#X connect 14 0 15 0;
#X connect 15 0 1 0;
