#N canvas 124 272 497 384 10;
#X obj 15 11 inlet~;
#X obj 15 351 outlet~;
#X obj 145 11 inlet;
#X obj 85 11 inlet;
#X obj 14 81 pitch_shifter;
#X msg 58 59 1;
#X msg 147 58 1;
#X obj 147 35 loadbang;
#X obj 63 274 bob~;
#X msg 155 240 saturation \$1;
#X msg 193 219 oversample \$1;
#X obj 174 166 loadbang;
#X obj 75 201 sig~;
#X obj 75 224 lop~ 1;
#X msg 155 197 300;
#X obj 225 11 inlet;
#X obj 225 34 sig~;
#X obj 225 57 lop~ 1;
#X msg 193 197 8;
#X obj 332 240 line~;
#X obj 332 142 change;
#X obj 332 165 bng 15 250 50 0 empty empty empty 17 7 0 10 -262144
-1 -1;
#X obj 64 304 *~;
#X obj 332 263 expr~ abs(1-$v1);
#X obj 14 304 *~;
#X obj 372 185 delay 1000;
#X msg 332 207 1 50;
#X msg 372 207 0 3000;
#X connect 0 0 4 0;
#X connect 2 0 12 0;
#X connect 2 0 20 0;
#X connect 3 0 4 2;
#X connect 4 0 8 0;
#X connect 4 0 24 0;
#X connect 5 0 4 1;
#X connect 6 0 4 3;
#X connect 7 0 6 0;
#X connect 7 0 5 0;
#X connect 8 0 22 0;
#X connect 9 0 8 0;
#X connect 10 0 8 0;
#X connect 11 0 14 0;
#X connect 11 0 18 0;
#X connect 12 0 13 0;
#X connect 13 0 8 1;
#X connect 14 0 9 0;
#X connect 15 0 16 0;
#X connect 16 0 17 0;
#X connect 17 0 8 2;
#X connect 18 0 10 0;
#X connect 19 0 22 1;
#X connect 19 0 23 0;
#X connect 20 0 21 0;
#X connect 21 0 26 0;
#X connect 21 0 25 0;
#X connect 22 0 1 0;
#X connect 23 0 24 1;
#X connect 24 0 1 0;
#X connect 25 0 27 0;
#X connect 26 0 19 0;
#X connect 27 0 19 0;
