#N canvas 0 93 1024 675 10;
#X declare -path ./psychotron_resources;
#X declare -path ./psychotron_resources/controls;
#X declare -path ./psychotron_resources/effects;
#X declare -path ./psychotron_resources/utilities;
#X obj 9 405 adc~ 1;
#X obj 16 42 loadbang;
#X msg 16 179 \; pd dsp 1;
#X obj 395 674 vibrato;
#X obj 43 490 mi_bng 17;
#X obj 103 490 mi_bng 14;
#X obj 163 490 mi_tgl 8;
#X obj 66 1640 mi_tgl 6;
#X msg 134 1644 1;
#X obj 134 1624 loadbang;
#X obj 9 664 chorus;
#X obj 66 644 mi_tgl 9;
#X obj 40 859 sequencer;
#X obj 40 817 loadbang;
#X obj 761 642 pitch_trem;
#X obj 19 426 p_input 60 90;
#X obj 107 817 loadbang;
#X obj 486 425 led 2;
#X obj 431 469 mi_bng 12;
#X obj 501 469 mi_bng 15;
#X obj 571 469 mi_tgl 4;
#X obj 409 805 mi_tgl 5;
#X obj 452 654 mi_tgl 7;
#X obj 795 472 mi_bng 10;
#X obj 865 472 mi_bng 13;
#X obj 935 472 mi_tgl 2;
#X obj 804 752 mi_tgl 1;
#X obj 818 1124 mi_tgl 3;
#X obj 818 950 mi_tgl 0;
#X msg 40 837 0;
#X obj 397 385 adc~ 2;
#X obj 761 970 stepvib;
#X obj 9 1663 tremolo;
#X obj 950 687 mi_joy 1 10 -1 1 0;
#X obj 425 992 mi_key 16 21 24 25 18 23 20 22 19;
#X obj 1005 67 mi_seqbng 17 14 12 15 10 13 500;
#X obj 1005 107 mi_seqbng 25 18 23 12 15 16 500;
#X obj 66 1418 mi_tgl 11;
#X obj 761 772 phaser;
#X obj 1130 385 adc~ 4;
#X obj 607 767 / 10;
#X obj 607 790 pow -1;
#X obj 1005 87 mo_seqled 42 50;
#X obj 1005 127 mo_seqled 42 50;
#X text 15 8 PSYCHOTRON;
#X obj 9 375 cnv 15 100 24 empty empty LINE1 20 12 0 20 -257985 -1
0;
#X obj 397 355 cnv 15 100 24 empty empty LINE2 20 12 0 20 -4032 -1
0;
#X msg 107 837 1;
#X obj 394 1411 s~ \$0l2;
#X obj 9 1922 s~ \$0l1;
#X obj 549 22 r~ \$0l1;
#X obj 549 82 dac~ 1;
#X obj 619 22 r~ \$0l2;
#X obj 689 22 r~ \$0l3;
#X obj 760 22 r~ \$0l4;
#X obj 759 82 dac~ 4;
#X obj 870 54 recorder 1 10;
#X obj 760 355 cnv 15 100 24 empty empty LINE3 20 12 0 20 -4034 -1
0;
#X obj 860 34 r~ \$0l1;
#X obj 860 74 r~ \$0l2;
#X obj 860 114 r~ \$0l3;
#X obj 860 154 r~ \$0l4;
#X obj 761 1411 s~ \$0l3;
#X obj 1130 701 s~ \$0l4;
#X obj 1130 355 cnv 15 100 24 empty empty LINE4 20 12 0 20 -232576
-1 0;
#X obj 216 39 declare -path ./psychotron_resources;
#X obj 216 59 declare -path ./psychotron_resources/controls;
#X obj 216 79 declare -path ./psychotron_resources/effects;
#X obj 216 99 declare -path ./psychotron_resources/utilities;
#X obj 221 1689 mi_pot 1 18 1 6 1;
#X obj 221 888 mi_pot 1 19 1 8 1;
#X obj 950 807 mi_pot 1 23 0 5 0;
#X obj 950 957 mi_pot 1 6 0 40 0;
#X obj 950 1020 mi_pot 1 24 0.5 10 0.5;
#X obj 598 638 mi_pot 1 22 1 12 1;
#X obj 950 629 mi_joy 1 9 0.5 2 1;
#X text 15 18 by Sylvain de Buyser \, May 2018;
#X obj 870 94 recorder 2 10;
#X obj 870 134 recorder 3 10;
#X obj 870 174 recorder 4 10;
#X obj 407 405 p_input 60 90;
#X obj 770 405 p_input 60 90;
#X obj 1140 405 p_input 60 90;
#X obj 201 790 mi_pot 1 14 100 1000 250;
#X obj 216 122 ctlin;
#X floatatom 216 138 5 0 0 0 - - -, f 5;
#X floatatom 258 138 5 0 0 0 - - -, f 5;
#X floatatom 300 138 5 0 0 0 - - -, f 5;
#X floatatom 216 178 5 0 0 0 - - -, f 5;
#X floatatom 258 178 5 0 0 0 - - -, f 5;
#X floatatom 300 178 5 0 0 0 - - -, f 5;
#X obj 216 162 notein;
#X obj 619 82 dac~ 2;
#X obj 598 705 mi_pot 1 20 2 10 3;
#X obj 956 1195 mi_pot 1 7 2 10 3;
#X obj 760 385 adc~ 3;
#X obj 689 82 dac~ 3;
#X obj 373 136 receive pd;
#X obj 373 159 print;
#X msg 16 234 \; pd midi-dialog 1 0 0 0 0 0 0 0 0 1 0 0 0 0 0 0 0 0
1 1;
#X obj 10 517 uLooper;
#X obj 761 1361 *~ 0.01;
#X obj 394 1370 *~ 0.01;
#X obj 9 1893 *~;
#X obj 1130 664 *~ 0.01;
#X obj 950 868 mi_pot 1 5 -0.7 0.7 0;
#X obj 950 747 mi_pot 1 8 1 5 1;
#X obj 221 1489 mi_pot 1 16 2 10 3;
#X obj 181 850 expr ($f1-100)*(-900)/900+1000;
#X obj 1130 481 theremine 5000;
#X msg 1261 492 1;
#X msg 1342 492 1;
#X obj 1293 465 loadbang;
#X msg 1297 492 0.175;
#X obj 1225 639 mi_pot 1 1 0 0.15 0;
#X obj 16 62 t b b b b b b b b b b;
#X obj 160 82 s LB1;
#X obj 144 102 s LB2;
#X obj 128 122 s LB3;
#X obj 112 82 s LB4;
#X obj 96 102 s LB5;
#X obj 80 122 s LB6;
#X obj 62 82 s LB7;
#X obj 48 102 s LB8;
#X obj 32 122 s LB9;
#X obj 18 82 s LB0;
#X obj 16 159 r LB0;
#X obj 16 213 r LB9;
#X obj 16 269 r LB9;
#X obj 473 136 r LB0;
#X obj 473 196 makenote 127 500;
#X msg 473 176 127;
#X obj 761 1144 techo;
#X obj 807 1302 mi_pot 1 0 0 1 0;
#X obj 440 1296 mi_pot 1 2 0 1 0;
#X obj 27 1830 mi_pot 1 3 0 1 0;
#X obj 619 52 *~ 0.5;
#X obj 10 1318 pitch_filter;
#X obj 9 962 9step_pitch 1 1.125 1.2 1.25 1.33 1.5 1.67 1.8 2;
#X obj 133 1231 mi_joy 1 11 0.5 2 1;
#X obj 133 1349 mtof;
#X floatatom 133 1372 5 0 0 0 - - -, f 5;
#X obj 133 1289 mi_joy 1 12 50 95 74;
#X obj 397 499 uLooper;
#X obj 761 502 uLooper;
#X obj 71 1247 loadbang;
#X obj 221 719 mi_pot 1 13 0.5 2 0.5;
#X obj 221 659 mi_pot 1 17 0 10 0;
#X obj 1131 527 pitch_shifter;
#X msg 71 1270 3.7;
#X obj 481 777 mo_metroled 35;
#X obj 394 1035 9step_pitch 1 1.125 1.2 1.25 1.333 1.5 1.667 1.8 2
;
#X msg 16 290 \; pd audio-dialog 2 0 0 0 4 0 0 0 2 0 0 0 4 0 0 0 48000
20 -1 64;
#X obj 9 1438 techo;
#X obj 394 831 techo;
#X obj 956 1137 mi_pot 1 4 0 0.8 0;
#X obj 221 1431 mi_pot 1 15 0 0.8 0;
#X obj 589 845 mi_pot 1 21 0 0.8 0;
#X obj 185 1092 led 21;
#X obj 29 1092 led 37;
#X obj 81 1092 led 41;
#X obj 133 1092 led 19;
#X obj 57 1144 led 39;
#X obj 109 1144 led 38;
#X obj 161 1144 led 40;
#X obj 213 1144 led 20;
#X obj 46 446 led 0;
#X obj 88 446 led 1;
#X obj 797 426 led 3;
#X obj 193 592 led 11;
#X obj 143 592 led 12;
#X obj 583 579 led 13;
#X obj 531 579 led 15;
#X obj 905 567 led 16;
#X obj 957 567 led 18;
#X obj 434 425 led 22;
#X obj 849 426 led 23;
#X obj 1167 425 led 24;
#X obj 1220 425 led 25;
#X obj 469 1209 led 26;
#X obj 439 1159 led 27;
#X obj 539 1159 led 28;
#X obj 569 1209 led 29;
#X obj 489 1159 led 30;
#X obj 589 1159 led 31;
#X obj 639 1159 led 32;
#X obj 519 1209 led 33;
#X obj 619 1209 led 34;
#X obj 243 592 led 10;
#X obj 635 579 led 14;
#X obj 1009 567 led 17;
#X obj 473 219 pack;
#X obj 473 261 noteout;
#X msg 473 240 \$2 \$1 2;
#X obj 473 156 metro 1500;
#X obj 504 177 bng 15 250 50 0 empty empty empty 17 7 0 10 -262144
-1 -1;
#X msg 580 139 stop;
#X obj 553 126 bng 15 250 50 0 empty empty empty 17 7 0 10 -262144
-1 -1;
#X obj 95 1767 mo_metroled 5;
#X obj 95 1541 mo_metroled 4;
#X obj 95 767 mo_metroled 9;
#X obj 847 1247 mo_metroled 6;
#X obj 847 1074 mo_metroled 7;
#X obj 847 906 mo_metroled 8;
#X obj 472 935 mo_metroled 36;
#X connect 0 0 15 0;
#X connect 1 0 115 0;
#X connect 3 0 154 0;
#X connect 3 1 150 0;
#X connect 3 2 150 1;
#X connect 4 0 100 1;
#X connect 5 0 100 2;
#X connect 7 0 32 1;
#X connect 8 0 32 2;
#X connect 9 0 8 0;
#X connect 10 0 138 0;
#X connect 10 1 200 0;
#X connect 10 2 200 1;
#X connect 11 0 10 1;
#X connect 12 0 138 1;
#X connect 12 1 138 2;
#X connect 12 2 138 3;
#X connect 12 3 138 4;
#X connect 12 4 138 5;
#X connect 12 5 138 6;
#X connect 12 6 138 7;
#X connect 12 7 138 8;
#X connect 13 0 29 0;
#X connect 14 0 38 0;
#X connect 15 0 100 0;
#X connect 15 1 166 0;
#X connect 15 2 167 0;
#X connect 16 0 47 0;
#X connect 18 0 143 1;
#X connect 19 0 143 2;
#X connect 21 0 154 1;
#X connect 22 0 3 1;
#X connect 23 0 144 1;
#X connect 24 0 144 2;
#X connect 26 0 38 1;
#X connect 27 0 132 1;
#X connect 28 0 31 1;
#X connect 29 0 12 0;
#X connect 30 0 80 0;
#X connect 31 0 132 0;
#X connect 31 1 202 0;
#X connect 31 2 202 1;
#X connect 32 0 103 0;
#X connect 32 1 198 0;
#X connect 32 2 198 1;
#X connect 33 0 14 2;
#X connect 34 0 151 1;
#X connect 34 1 151 2;
#X connect 34 2 151 3;
#X connect 34 3 151 4;
#X connect 34 4 151 5;
#X connect 34 5 151 6;
#X connect 34 6 151 7;
#X connect 34 7 151 8;
#X connect 34 8 151 9;
#X connect 35 0 42 0;
#X connect 35 0 56 1;
#X connect 35 0 77 1;
#X connect 35 0 78 1;
#X connect 35 0 79 1;
#X connect 36 0 43 0;
#X connect 36 0 56 2;
#X connect 36 0 77 2;
#X connect 36 0 78 2;
#X connect 36 0 79 2;
#X connect 37 0 153 1;
#X connect 38 0 31 0;
#X connect 38 1 203 0;
#X connect 38 2 203 1;
#X connect 39 0 82 0;
#X connect 40 0 41 0;
#X connect 41 0 3 3;
#X connect 47 0 12 2;
#X connect 50 0 51 0;
#X connect 52 0 136 0;
#X connect 53 0 92 0;
#X connect 54 0 136 0;
#X connect 58 0 56 0;
#X connect 59 0 77 0;
#X connect 60 0 78 0;
#X connect 61 0 79 0;
#X connect 69 0 32 3;
#X connect 70 0 12 2;
#X connect 71 0 38 3;
#X connect 72 0 31 2;
#X connect 73 0 31 3;
#X connect 74 0 3 2;
#X connect 75 0 14 1;
#X connect 80 0 143 0;
#X connect 80 1 175 0;
#X connect 80 2 17 0;
#X connect 81 0 144 0;
#X connect 81 1 168 0;
#X connect 81 2 176 0;
#X connect 82 0 109 0;
#X connect 82 1 177 0;
#X connect 82 2 178 0;
#X connect 83 0 108 0;
#X connect 84 0 85 0;
#X connect 84 1 86 0;
#X connect 84 2 87 0;
#X connect 91 0 88 0;
#X connect 91 1 89 0;
#X connect 91 2 90 0;
#X connect 93 0 40 0;
#X connect 93 0 154 3;
#X connect 94 0 132 3;
#X connect 95 0 81 0;
#X connect 100 0 10 0;
#X connect 100 1 10 0;
#X connect 100 2 170 0;
#X connect 100 3 169 0;
#X connect 100 4 188 0;
#X connect 101 0 62 0;
#X connect 102 0 48 0;
#X connect 103 0 49 0;
#X connect 104 0 63 0;
#X connect 105 0 38 4;
#X connect 106 0 38 2;
#X connect 107 0 153 3;
#X connect 108 0 12 1;
#X connect 109 0 148 0;
#X connect 110 0 148 1;
#X connect 111 0 148 3;
#X connect 112 0 110 0;
#X connect 112 0 113 0;
#X connect 112 0 111 0;
#X connect 113 0 148 2;
#X connect 114 0 104 1;
#X connect 115 0 125 0;
#X connect 115 1 124 0;
#X connect 115 2 123 0;
#X connect 115 3 122 0;
#X connect 115 4 121 0;
#X connect 115 5 120 0;
#X connect 115 6 119 0;
#X connect 115 7 118 0;
#X connect 115 8 117 0;
#X connect 115 9 116 0;
#X connect 126 0 2 0;
#X connect 127 0 99 0;
#X connect 128 0 152 0;
#X connect 129 0 194 0;
#X connect 130 0 191 0;
#X connect 130 1 191 1;
#X connect 131 0 130 0;
#X connect 132 0 101 0;
#X connect 132 1 201 0;
#X connect 132 2 201 1;
#X connect 133 0 101 1;
#X connect 134 0 102 1;
#X connect 135 0 103 1;
#X connect 136 0 92 0;
#X connect 136 0 51 0;
#X connect 137 0 153 0;
#X connect 138 0 137 0;
#X connect 138 1 159 0;
#X connect 138 2 160 0;
#X connect 138 3 161 0;
#X connect 138 4 158 0;
#X connect 138 5 162 0;
#X connect 138 6 163 0;
#X connect 138 7 164 0;
#X connect 138 8 165 0;
#X connect 139 0 137 1;
#X connect 140 0 141 0;
#X connect 140 0 137 2;
#X connect 142 0 140 0;
#X connect 143 0 3 0;
#X connect 143 1 3 0;
#X connect 143 2 172 0;
#X connect 143 3 171 0;
#X connect 143 4 189 0;
#X connect 144 0 14 0;
#X connect 144 1 14 0;
#X connect 144 2 173 0;
#X connect 144 3 174 0;
#X connect 144 4 190 0;
#X connect 145 0 149 0;
#X connect 146 0 10 3;
#X connect 147 0 10 2;
#X connect 148 0 104 0;
#X connect 149 0 137 3;
#X connect 151 0 102 0;
#X connect 151 1 180 0;
#X connect 151 2 179 0;
#X connect 151 3 183 0;
#X connect 151 4 186 0;
#X connect 151 5 181 0;
#X connect 151 6 182 0;
#X connect 151 7 184 0;
#X connect 151 8 187 0;
#X connect 151 9 185 0;
#X connect 153 0 32 0;
#X connect 153 1 199 0;
#X connect 153 2 199 1;
#X connect 154 0 151 0;
#X connect 154 1 204 0;
#X connect 154 2 204 1;
#X connect 155 0 132 2;
#X connect 156 0 153 2;
#X connect 157 0 154 2;
#X connect 191 0 193 0;
#X connect 193 0 192 0;
#X connect 194 0 131 0;
#X connect 194 0 195 0;
#X connect 196 0 194 0;
#X connect 197 0 194 0;
