#N canvas 264 37 747 737 10;
#X obj 171 294 *~;
#X floatatom 182 244 5 0 0 0 - - -;
#X obj 171 224 pow 2;
#N canvas 704 185 202 319 trapezoid 0;
#X obj 25 124 phasor~ 1;
#X obj 25 199 abs~;
#X obj 25 176 *~ 2;
#X obj 25 251 clip~ 0 0.5;
#X obj 25 152 -~ 0.5;
#X obj 25 19 inlet~;
#X obj 25 282 outlet~;
#X obj 25 225 -~ 0.25;
#X text 74 43 resync;
#X msg 76 98 0.625;
#X msg 76 68 0.125;
#X text 116 67 higher note;
#X text 116 98 lower note;
#X connect 0 0 4 0;
#X connect 1 0 7 0;
#X connect 2 0 1 0;
#X connect 3 0 6 0;
#X connect 4 0 2 0;
#X connect 5 0 0 0;
#X connect 7 0 3 0;
#X connect 9 0 0 1;
#X connect 10 0 0 1;
#X restore 231 264 pd trapezoid;
#X text 368 55 Step-vibrato: step-wise modulation of variable speed
delay. The modulator is a trapezoid \, therefore you get three different
tones in a sequence of four notes:;
#X text 369 113 original - lower tone - original - higher tone;
#X text 369 143 Around vibrato depth value ~ 500 \, the lower tone
has playback speed zero. With vibrato depth above 500 \, the speed
of the lower tone is negative so the sound is played backwards.;
#X text 370 214 A few sweet spots appear on the vibrato depth scale
\, where undertone and overtone harmonize with the original.;
#X obj 31 401 outlet~;
#X obj 103 25 inlet;
#X obj 143 25 inlet;
#X obj 16 129 tgl 15 0 empty empty empty 17 7 0 10 -262144 -1 -1 0
1;
#X obj 31 295 *~ 1;
#X obj 52 255 - 1;
#X obj 52 275 abs;
#X obj 63 25 inlet;
#X floatatom 153 73 5 0 0 0 - - -;
#X floatatom 153 103 5 0 0 0 - - -;
#X obj 171 376 *~;
#X obj 19 79 hsl 128 10 0 40 0 0 empty empty Depth -2 -8 0 10 -262144
-1 -1 0 1;
#X obj 19 109 hsl 128 10 0.5 10 0 0 empty empty Speed -2 -8 0 10 -262144
-1 -1 0 1;
#X obj 202 72 s \$0d;
#X obj 202 102 s \$0s;
#X obj 16 160 s \$0tog;
#X obj 186 355 r \$0tog;
#X obj 52 235 r \$0tog;
#X obj 171 204 r \$0d;
#X obj 231 244 r \$0s;
#X obj 13 25 s~ \$0i;
#X obj 13 5 inlet~;
#X obj 31 195 r~ \$0i;
#X obj 183 25 loadbang;
#N canvas 1007 216 240 245 depth 0;
#X obj 28 163 line~;
#X floatatom 54 111 5 0 0 0 - - -;
#X obj 28 94 /;
#X obj 36 66 t b f;
#X obj 28 29 inlet;
#X obj 69 29 inlet;
#X obj 28 195 outlet~;
#X msg 28 137 \$1 200;
#X connect 0 0 6 0;
#X connect 2 0 1 0;
#X connect 2 0 7 0;
#X connect 3 0 2 0;
#X connect 3 1 2 1;
#X connect 4 0 2 0;
#X connect 5 0 3 0;
#X connect 7 0 0 0;
#X restore 171 264 pd depth;
#X text 388 265 Toggle : 0 or 1;
#X text 388 255 Sound input;
#X text 378 245 INLETS;
#X text 378 305 OUTLETS;
#X text 388 315 Sound output;
#X text 388 325 Toggle : 0 or 1;
#X text 388 335 Time : from 10 to 1000ms;
#X text 368 45 ------------------;
#X text 368 235 ------------------------------------------------------------
;
#X text 368 15 STEP VIBRATO;
#X text 368 25 by Katja Vetter \, Jan 2012;
#X text 368 35 interface by Sylvain de Buyser \, May 2017;
#X text 388 275 Depth : from 0 to 40;
#X text 388 285 Speed : from 0.5 to 10;
#X obj 41 215 delwrite~ \$0dl 1000;
#X obj 171 314 vd~ \$0dl 1000;
#X obj 171 334 hip~ 20;
#X obj 245 120 outlet;
#X obj 295 120 outlet;
#X obj 245 100 r \$0tog;
#X obj 295 80 pow -1;
#X obj 295 60 r \$0s;
#X obj 295 100 * 1000;
#X connect 0 0 48 0;
#X connect 2 0 1 0;
#X connect 2 0 32 0;
#X connect 3 0 0 1;
#X connect 9 0 19 0;
#X connect 10 0 20 0;
#X connect 11 0 23 0;
#X connect 12 0 8 0;
#X connect 13 0 14 0;
#X connect 14 0 12 1;
#X connect 15 0 11 0;
#X connect 16 0 21 0;
#X connect 17 0 22 0;
#X connect 18 0 8 0;
#X connect 19 0 16 0;
#X connect 20 0 17 0;
#X connect 24 0 18 1;
#X connect 25 0 13 0;
#X connect 26 0 2 0;
#X connect 27 0 3 0;
#X connect 27 0 32 1;
#X connect 29 0 28 0;
#X connect 30 0 12 0;
#X connect 30 0 47 0;
#X connect 31 0 19 0;
#X connect 31 0 20 0;
#X connect 32 0 0 0;
#X connect 48 0 49 0;
#X connect 49 0 18 0;
#X connect 52 0 50 0;
#X connect 53 0 55 0;
#X connect 54 0 53 0;
#X connect 55 0 51 0;
#X coords 0 -1 1 1 180 100 1 10 50;
