#N canvas 152 105 958 510 10;
#X obj 15 233 sig~;
#X obj 215 318 *~;
#X obj 313 130 * 100;
#X obj 15 495 outlet~;
#X obj 145 318 *~;
#X obj 15 395 *~;
#X obj 263 150 outlet;
#X obj 313 150 outlet;
#X obj 15 415 hip~ 20;
#X floatatom 25 214 5 0 0 0 - - -, f 5;
#X obj 313 110 r \$0t;
#X obj 92 424 r~ \$0i;
#X obj 34 293 r~ \$0i;
#X obj 145 278 r~ \$0i;
#X obj 230 298 r \$0f;
#X obj 25 435 s~ \$0d;
#X obj 215 278 r~ \$0d;
#X obj 160 298 r \$0tog;
#X obj 33 325 r \$0tog;
#X text 400 122 Feedback : from 0 to 1;
#X text 400 112 Toggle : 0 or 1;
#X text 400 102 Sound input;
#X text 390 92 INLETS;
#X text 390 152 OUTLETS;
#X text 400 162 Sound output;
#X text 400 172 Toggle : 0 or 1;
#X text 400 182 Time : from 10 to 1000ms;
#X text 380 32 ------------------;
#X text 390 42 Emulate a tape echo \, with a pitch shift effect on
the delayed sound when the "Time" setting is being modified.;
#X text 380 82 ------------------------------------------------------------
;
#X text 380 12 TAPE ECHO EMULATOR;
#X text 380 22 by Sylvain de Buyser \, May 2017;
#X obj 263 130 r \$0tog;
#X obj 15 194 * 100;
#X obj 15 174 r \$0t;
#X obj 15 253 lop~ 1;
#X obj 15 273 vd~ \$0dl;
#X obj 145 348 delwrite~ \$0dl 1500;
#X obj 12 14 inlet~;
#X obj 112 14 inlet;
#X obj 152 14 inlet;
#X floatatom 153 88 5 0 0 0 - - -, f 5;
#X floatatom 153 118 5 0 0 0 - - -, f 5;
#X obj 14 140 tgl 15 0 empty empty empty 17 7 0 10 -262144 -1 -1 1
1;
#X obj 17 94 hsl 128 10 0 1.5 0 0 empty empty Feedback -2 -8 0 10 -262144
-1 -1 3067 1;
#X obj 17 124 hsl 128 10 0.1 10 0 0 empty empty Time -2 -8 0 10 -262144
-1 -1 2437 1;
#X obj 72 14 inlet;
#X obj 200 87 s \$0f;
#X obj 200 117 s \$0t;
#X obj 12 34 s~ \$0i;
#X obj 200 147 s \$0tog;
#X text 400 132 Time : from 0.1 to 10ds;
#X text 390 72 An overdrive and a lop also shape the sound;
#X obj 192 14 loadbang;
#X obj 163 415 r \$0tog;
#X obj 163 438 expr if($f1==0 \, 1 \, 0.5);
#X obj 92 467 *~ 1;
#X obj 33 348 sig~;
#X obj 33 371 lop~ 1;
#X obj 15 458 *~ 0.5;
#X connect 0 0 35 0;
#X connect 1 0 37 0;
#X connect 2 0 7 0;
#X connect 4 0 37 0;
#X connect 5 0 8 0;
#X connect 8 0 15 0;
#X connect 8 0 59 0;
#X connect 9 0 0 0;
#X connect 10 0 2 0;
#X connect 11 0 56 0;
#X connect 12 0 5 0;
#X connect 13 0 4 0;
#X connect 14 0 1 1;
#X connect 16 0 1 0;
#X connect 17 0 4 1;
#X connect 18 0 57 0;
#X connect 32 0 6 0;
#X connect 33 0 0 0;
#X connect 34 0 33 0;
#X connect 35 0 36 0;
#X connect 36 0 5 0;
#X connect 38 0 49 0;
#X connect 39 0 44 0;
#X connect 40 0 45 0;
#X connect 41 0 47 0;
#X connect 42 0 48 0;
#X connect 43 0 50 0;
#X connect 44 0 41 0;
#X connect 45 0 42 0;
#X connect 46 0 43 0;
#X connect 53 0 44 0;
#X connect 53 0 45 0;
#X connect 54 0 55 0;
#X connect 55 0 56 1;
#X connect 56 0 3 0;
#X connect 57 0 58 0;
#X connect 58 0 5 1;
#X connect 59 0 3 0;
#X coords 0 -1 1 1 180 100 1 10 60;
