#N canvas 54 67 957 708 10;
#X obj 654 234 bng 15 250 50 0 empty empty REC_&_OVERDUB 17 7 0 10
-262144 -1 -1;
#X obj 654 254 bng 15 250 50 0 empty empty STOP_&_REINIT 17 7 0 10
-262144 -1 -1;
#X obj 679 103 inlet;
#X obj 689 123 inlet;
#X obj 769 259 s \$0rec;
#X obj 769 299 s \$0stop;
#X obj 656 83 r \$0time_limit;
#X obj 8 466 cnv 15 420 540 empty empty State_machine 100 12 0 14 -233017
-66577 0;
#X obj 24 575 bng 15 250 50 0 empty empty empty 17 7 0 10 -262144 -1
-1;
#X obj 24 621 + 1;
#X floatatom 24 658 5 0 0 0 - - -, f 5;
#X obj 24 786 bng 15 250 50 0 empty empty empty 17 7 0 10 -262144 -1
-1;
#X obj 24 761 spigot;
#X obj 24 737 t b f;
#X obj 104 786 bng 15 250 50 0 empty empty empty 17 7 0 10 -262144
-1 -1;
#X obj 104 761 spigot;
#X obj 104 737 t b f;
#X obj 184 786 bng 15 250 50 0 empty empty empty 17 7 0 10 -262144
-1 -1;
#X obj 184 761 spigot;
#X obj 184 737 t b f;
#X obj 264 786 bng 15 250 50 0 empty empty empty 17 7 0 10 -262144
-1 -1;
#X obj 264 761 spigot;
#X obj 264 737 t b f;
#X obj 24 712 == 0;
#X obj 104 713 == 1;
#X msg 54 631 -1;
#X obj 145 673 moses 2;
#X obj 184 693 mod 2;
#X obj 184 713 == 0;
#X obj 264 713 == 1;
#X obj 24 597 1;
#X obj 24 482 r \$0rec;
#X obj 54 611 r \$0stop;
#X obj 572 676 cnv 15 120 150 empty empty Time_limit 20 12 0 14 -233017
-66577 0;
#X msg 588 742 stop;
#X obj 588 702 r \$0stop;
#X obj 588 804 s \$0time_limit;
#X obj 330 344 cnv 15 300 120 empty empty LED_outputs 20 12 0 14 -233017
-66577 0;
#X obj 386 418 outlet;
#X obj 456 418 outlet;
#X obj 526 418 outlet;
#X obj 386 442 tgl 15 0 empty empty REC 17 7 0 10 -262144 -1 -1 0 127
;
#X obj 456 442 tgl 15 0 empty empty PLAY 17 7 0 10 -262144 -1 -1 0
127;
#X obj 526 442 tgl 15 0 empty empty OVERDUB 17 7 0 10 -262144 -1 -1
0 127;
#X text 437 651 STOP : loop stops. Everything is reinitialized.;
#X obj 8 82 cnv 15 220 320 empty empty Loop_initialization 20 12 0
14 -233017 -66577 0;
#X obj 24 121 table \$0theLoop;
#X msg 147 281 resize \$1;
#X obj 147 301 s \$0theLoop;
#X obj 44 933 tgl 15 0 empty empty empty 17 7 0 10 -262144 -1 -1 0
1;
#X obj 124 933 tgl 15 0 empty empty empty 17 7 0 10 -262144 -1 -1 0
1;
#X obj 204 933 tgl 15 0 empty empty empty 17 7 0 10 -262144 -1 -1 0
1;
#X obj 284 933 tgl 15 0 empty empty empty 17 7 0 10 -262144 -1 -1 0
1;
#X msg 61 902 1;
#X msg 33 902 0;
#X msg 141 902 1;
#X msg 113 902 0;
#X msg 221 902 1;
#X msg 193 902 0;
#X msg 301 902 1;
#X msg 273 902 0;
#X obj 33 881 t b b;
#X obj 113 881 t b b;
#X obj 193 881 t b b;
#X obj 273 881 t b b;
#X obj 44 952 s \$0sRec;
#X obj 124 952 s \$0sPlay;
#X obj 204 952 s \$0sDub;
#X obj 284 952 s \$0sRpl;
#X obj 344 786 bng 15 250 50 0 empty empty empty 17 7 0 10 -262144
-1 -1;
#X obj 355 933 tgl 15 0 empty empty empty 17 7 0 10 -262144 -1 -1 1
1;
#X msg 372 902 1;
#X msg 344 902 0;
#X obj 344 881 t b b;
#X obj 355 952 s \$0sStop;
#X obj 344 761 r \$0stop;
#X obj 364 372 r \$0sRec;
#X obj 424 372 r \$0sPlay;
#X obj 494 372 r \$0sDub;
#X obj 554 372 r \$0sRpl;
#X obj 364 392 * 127;
#X obj 424 392 * 127;
#X obj 494 392 * 127;
#X obj 554 392 * 127;
#X msg 353 808 0;
#X msg 42 808 1;
#X msg 122 808 2;
#X msg 202 808 3;
#X msg 282 808 4;
#X obj 358 851 s \$0state;
#X text 437 469 1st REC : recording starts. If no other bangs until
time limit \, 2nd REC starts.;
#X text 437 499 2nd REC : recording stops. Loop length is set. Loop
play of the recording.;
#X text 437 529 3rd REC : overdub starts. If overdub longer than loop
length \, overdub continues over and over.;
#X text 437 559 4th REC : overdub stops. Loop play of the recording.
;
#X text 437 579 5th REC : GOTO 3rd REC.;
#X text 437 594 -----------------------------------------------------------
;
#X obj 632 344 cnv 15 120 120 empty empty Sample_rate 20 12 0 14 -233017
-66577 0;
#X obj 24 231 timer;
#X obj 24 251 / 1000;
#X floatatom 24 342 5 0 0 0 - - -, f 5;
#X obj 24 361 s \$0loopSize;
#X obj 669 411 samplerate~;
#X obj 669 431 s \$0sr;
#X obj 8 404 cnv 15 260 60 empty empty Audio_i/o 20 12 0 14 -233017
-66577 0;
#X obj 104 411 inlet~;
#X obj 104 445 s~ \$0in;
#X obj 161 445 outlet~;
#X obj 649 393 bng 15 250 50 0 empty empty empty 17 7 0 10 -262144
-1 -1;
#X obj 218 411 r~ \$0loop_sound;
#X obj 24 168 r \$0bRec;
#X obj 31 188 r \$0bPlay;
#X obj 599 722 r \$0bPlay;
#X obj 599 762 r \$0bRec;
#X obj 24 982 s \$0bRec;
#X obj 104 982 s \$0bPlay;
#X obj 184 982 s \$0bDub;
#X obj 264 982 s \$0bRpl;
#X msg 141 141 const 0;
#X obj 141 161 s \$0theLoop;
#X obj 177 251 r \$0sr;
#X obj 141 121 r \$0stop;
#X msg 35 311 60;
#X obj 8 1008 cnv 15 310 350 empty empty Index 20 12 0 14 -233017 -66577
0;
#X obj 27 1188 phasor~;
#X obj 233 1108 snapshot~;
#X obj 27 1228 *~;
#X obj 102 1198 *;
#X obj 102 1158 r \$0loopSize;
#X obj 27 1063 pow -1;
#X obj 27 1043 r \$0loopSize;
#X obj 36 1123 r \$0stop;
#X msg 66 1163 0;
#X obj 117 1178 r \$0sr;
#X floatatom 233 1127 10 0 0 0 Samples - -, f 10;
#X obj 233 1047 bng 15 250 50 0 empty empty empty 17 7 0 10 -262144
-1 -1;
#X obj 233 1068 metro 101;
#X msg 36 1163 0;
#X obj 36 1143 t f f;
#X obj 99 1123 r \$0bRec;
#X obj 233 1167 /;
#X obj 257 1147 r \$0sr;
#X floatatom 233 1188 10 0 0 0 Seconds - -, f 10;
#X obj 27 1103 * 1;
#X obj 27 1329 s~ \$0Rindex;
#X obj 243 1088 r~ \$0Rindex;
#X obj 320 1008 cnv 15 500 350 empty empty Read_and_write 20 12 0 14
-233017 -66577 0;
#X obj 337 1328 s~ \$0loop_sound;
#X obj 331 1083 r~ \$0loop_sound;
#X obj 331 1103 r~ \$0in;
#X msg 606 1252 stop;
#X obj 649 1062 r \$0bRec;
#X obj 659 1082 r \$0bDub;
#X obj 426 1034 r \$0bPlay;
#X obj 463 1054 r \$0bRpl;
#X obj 499 1074 r \$0stop;
#X obj 498 1275 bng 15 250 50 0 empty empty empty 17 7 0 10 -262144
-1 -1;
#X obj 616 1273 bng 15 250 50 0 empty empty empty 17 7 0 10 -262144
-1 -1;
#X obj 337 1268 r~ \$0Rindex;
#X obj 337 1298 tabread4~ \$0theLoop;
#X obj 446 1147 line~;
#X obj 431 1167 *~;
#X obj 606 1230 delay 1;
#X obj 659 1127 snapshot~;
#X obj 147 261 *;
#X msg 488 1253 start \$1;
#X msg 488 1226 0;
#X obj 35 291 r \$0stop;
#X obj 560 71 loadbang;
#X obj 570 151 s \$0b2;
#X obj 669 391 r \$0b1;
#X obj 769 279 r \$0b3;
#X obj 560 111 t b b b;
#X obj 560 131 s \$0b3;
#X obj 580 171 s \$0b1;
#X obj 255 1046 r \$0b2;
#X obj 147 221 r \$0b2;
#X msg 147 241 60;
#X obj 588 783 delay 59999;
#X text 10 2 LOOPER with reverse;
#X text 10 12 by Sylvain de Buyser \, May 2017;
#X text 437 609 REVERSE : the loop is played reversed.;
#X obj 488 1305 tabwrite~ \$0theLoop;
#X obj 669 1107 r~ \$0Rindex;
#X obj 729 1270 bng 15 250 50 0 empty empty empty 17 7 0 10 -262144
-1 -1;
#X obj 810 1151 *;
#X obj 810 1111 r \$0loopSize;
#X obj 825 1131 r \$0sr;
#X obj 729 1178 expr ($f2-$f1);
#X obj 729 1199 t b f;
#X msg 756 1221 tempo \$1 samp;
#X obj 662 1179 r \$0stop;
#X obj 672 1199 r \$0bRpl;
#X msg 672 1220 stop;
#X obj 729 1249 delay 1;
#X obj 659 1148 expr $f1;
#X obj 677 209 cnv 5 5 5 empty empty REC/DUB 0 0 0 8 -262144 -66577
0;
#X obj 654 209 cnv 5 5 5 empty empty IN 0 0 0 8 -262144 -66577 0;
#X obj 719 209 cnv 5 5 5 empty empty STOP 0 0 0 8 -262144 -66577 0
;
#X obj 652 312 cnv 5 5 5 empty empty DRY 0 0 0 8 -262144 -66577 0;
#X obj 679 225 cnv 5 5 5 empty empty uLOOPER 0 0 0 12 -262144 -66577
0;
#X obj 218 445 outlet~;
#X obj 674 312 cnv 5 5 5 empty empty WET 0 0 0 8 -262144 -66577 0;
#X obj 699 143 inlet;
#X obj 698 312 cnv 5 5 5 empty empty REC/PLAY/DUB 0 0 0 8 -262144 -66577
0;
#X floatatom 654 276 5 0 0 1 LOOP_MAX - -, f 5;
#X obj 804 366 s \$0tl;
#X obj 676 758 r \$0tl;
#X obj 597 256 r \$0b1;
#X msg 597 277 59999;
#X obj 747 209 cnv 5 5 5 empty empty MX 0 0 0 8 -262144 -66577 0;
#X obj 699 164 max 100;
#X obj 570 91 r LB0;
#X msg 436 1107 0 50;
#X msg 456 1127 1 50;
#X connect 0 0 4 0;
#X connect 1 0 5 0;
#X connect 2 0 0 0;
#X connect 3 0 1 0;
#X connect 6 0 0 0;
#X connect 8 0 30 0;
#X connect 9 0 10 0;
#X connect 10 0 9 1;
#X connect 10 0 26 0;
#X connect 10 0 23 0;
#X connect 10 0 24 0;
#X connect 11 0 61 0;
#X connect 11 0 85 0;
#X connect 11 0 113 0;
#X connect 12 0 11 0;
#X connect 13 0 12 0;
#X connect 13 1 12 1;
#X connect 14 0 62 0;
#X connect 14 0 86 0;
#X connect 14 0 114 0;
#X connect 15 0 14 0;
#X connect 16 0 15 0;
#X connect 16 1 15 1;
#X connect 17 0 63 0;
#X connect 17 0 87 0;
#X connect 17 0 115 0;
#X connect 18 0 17 0;
#X connect 19 0 18 0;
#X connect 19 1 18 1;
#X connect 20 0 64 0;
#X connect 20 0 88 0;
#X connect 20 0 116 0;
#X connect 21 0 20 0;
#X connect 22 0 21 0;
#X connect 22 1 21 1;
#X connect 23 0 13 0;
#X connect 24 0 16 0;
#X connect 25 0 10 0;
#X connect 26 1 27 0;
#X connect 27 0 28 0;
#X connect 27 0 29 0;
#X connect 28 0 19 0;
#X connect 29 0 22 0;
#X connect 30 0 9 0;
#X connect 31 0 8 0;
#X connect 32 0 25 0;
#X connect 34 0 177 0;
#X connect 35 0 34 0;
#X connect 47 0 48 0;
#X connect 49 0 65 0;
#X connect 50 0 66 0;
#X connect 51 0 67 0;
#X connect 52 0 68 0;
#X connect 53 0 49 0;
#X connect 54 0 50 0;
#X connect 54 0 51 0;
#X connect 54 0 52 0;
#X connect 54 0 70 0;
#X connect 55 0 50 0;
#X connect 56 0 49 0;
#X connect 56 0 51 0;
#X connect 56 0 52 0;
#X connect 56 0 70 0;
#X connect 57 0 51 0;
#X connect 58 0 50 0;
#X connect 58 0 49 0;
#X connect 58 0 52 0;
#X connect 58 0 70 0;
#X connect 59 0 52 0;
#X connect 60 0 51 0;
#X connect 60 0 50 0;
#X connect 60 0 49 0;
#X connect 60 0 70 0;
#X connect 61 0 53 0;
#X connect 61 1 54 0;
#X connect 62 0 55 0;
#X connect 62 1 56 0;
#X connect 63 0 57 0;
#X connect 63 1 58 0;
#X connect 64 0 59 0;
#X connect 64 1 60 0;
#X connect 69 0 73 0;
#X connect 69 0 84 0;
#X connect 70 0 74 0;
#X connect 71 0 70 0;
#X connect 72 0 52 0;
#X connect 72 0 51 0;
#X connect 72 0 50 0;
#X connect 72 0 49 0;
#X connect 72 0 70 0;
#X connect 73 0 71 0;
#X connect 73 1 72 0;
#X connect 75 0 69 0;
#X connect 76 0 80 0;
#X connect 77 0 81 0;
#X connect 78 0 82 0;
#X connect 79 0 83 0;
#X connect 80 0 41 0;
#X connect 80 0 38 0;
#X connect 81 0 42 0;
#X connect 81 0 39 0;
#X connect 82 0 43 0;
#X connect 82 0 40 0;
#X connect 83 0 42 0;
#X connect 83 0 39 0;
#X connect 84 0 89 0;
#X connect 85 0 89 0;
#X connect 86 0 89 0;
#X connect 87 0 89 0;
#X connect 88 0 89 0;
#X connect 97 0 98 0;
#X connect 98 0 99 0;
#X connect 99 0 100 0;
#X connect 101 0 102 0;
#X connect 104 0 105 0;
#X connect 104 0 106 0;
#X connect 107 0 101 0;
#X connect 108 0 200 0;
#X connect 109 0 97 0;
#X connect 110 0 97 1;
#X connect 111 0 34 0;
#X connect 112 0 177 0;
#X connect 117 0 118 0;
#X connect 119 0 163 1;
#X connect 120 0 117 0;
#X connect 121 0 99 0;
#X connect 123 0 125 0;
#X connect 124 0 133 0;
#X connect 125 0 143 0;
#X connect 126 0 125 1;
#X connect 127 0 126 0;
#X connect 128 0 142 0;
#X connect 129 0 128 0;
#X connect 130 0 137 0;
#X connect 131 0 123 1;
#X connect 132 0 126 1;
#X connect 133 0 139 0;
#X connect 134 0 135 0;
#X connect 135 0 124 0;
#X connect 136 0 123 0;
#X connect 137 0 136 0;
#X connect 137 1 131 0;
#X connect 138 0 131 0;
#X connect 139 0 141 0;
#X connect 140 0 139 1;
#X connect 142 0 123 0;
#X connect 144 0 124 0;
#X connect 147 0 160 0;
#X connect 148 0 160 0;
#X connect 149 0 156 0;
#X connect 149 0 181 0;
#X connect 150 0 213 0;
#X connect 150 0 165 0;
#X connect 151 0 213 0;
#X connect 151 0 162 0;
#X connect 152 0 212 0;
#X connect 152 0 161 0;
#X connect 153 0 212 0;
#X connect 153 0 161 0;
#X connect 154 0 212 0;
#X connect 154 0 161 0;
#X connect 157 0 158 0;
#X connect 158 0 146 0;
#X connect 159 0 160 1;
#X connect 160 0 181 0;
#X connect 161 0 149 0;
#X connect 162 0 194 0;
#X connect 163 0 47 0;
#X connect 164 0 155 0;
#X connect 164 0 181 0;
#X connect 165 0 164 0;
#X connect 166 0 121 0;
#X connect 167 0 171 0;
#X connect 169 0 101 0;
#X connect 170 0 5 0;
#X connect 171 0 172 0;
#X connect 171 1 168 0;
#X connect 171 2 173 0;
#X connect 174 0 135 0;
#X connect 175 0 176 0;
#X connect 176 0 163 0;
#X connect 177 0 36 0;
#X connect 182 0 162 0;
#X connect 183 0 162 0;
#X connect 184 0 187 1;
#X connect 185 0 184 0;
#X connect 186 0 184 1;
#X connect 187 0 188 0;
#X connect 188 0 193 0;
#X connect 188 1 189 0;
#X connect 189 0 193 0;
#X connect 190 0 192 0;
#X connect 191 0 192 0;
#X connect 192 0 193 0;
#X connect 193 0 183 0;
#X connect 194 0 164 0;
#X connect 194 0 187 0;
#X connect 202 0 210 0;
#X connect 206 0 177 1;
#X connect 207 0 208 0;
#X connect 208 0 204 0;
#X connect 210 0 204 0;
#X connect 210 0 205 0;
#X connect 211 0 171 0;
#X connect 212 0 159 0;
#X connect 213 0 159 0;
#X coords 0 -1 1 1 110 120 2 650 200;
