#N canvas 722 94 825 553 10;
#X obj 148 242 osc~ 2;
#X obj 108 27 inlet;
#X obj 148 27 inlet;
#X obj 21 181 inlet~;
#X obj 21 385 outlet~;
#X obj 21 352 *~ 1;
#X obj 42 312 - 1;
#X obj 42 332 abs;
#X obj 15 132 tgl 15 0 empty empty empty 17 7 0 10 -262144 -1 -1 0
1;
#X floatatom 154 112 5 0 0 0 - - -;
#X floatatom 154 83 5 0 0 0 - - -;
#X obj 148 351 *~;
#X obj 68 27 inlet;
#X obj 18 88 hsl 128 10 1 12 0 0 empty empty Depth -2 -8 0 10 -262144
-1 -1 12700 1;
#X obj 18 118 hsl 128 10 1 6 0 0 empty empty Speed -2 -8 0 10 -262144
-1 -1 2216 1;
#X obj 262 106 outlet;
#X obj 312 106 outlet;
#X obj 198 82 s \$0d;
#X obj 219 211 r \$0d;
#X obj 198 112 s \$0s;
#X obj 148 182 r \$0s;
#X obj 31 202 delwrite~ \$0dl 100;
#X obj 148 302 vd~ \$0dl;
#X obj 198 141 s \$0tog;
#X obj 163 331 r \$0tog;
#X obj 42 292 r \$0tog;
#X obj 312 46 r \$0s;
#X obj 262 46 r \$0tog;
#X text 390 93 Toggle : 0 or 1;
#X text 390 83 Sound input;
#X text 380 73 INLETS;
#X text 380 133 OUTLETS;
#X text 390 143 Sound output;
#X text 390 153 Toggle : 0 or 1;
#X text 370 43 ------------------;
#X text 370 63 ------------------------------------------------------------
;
#X text 370 22 by Pierre Massat \, GuitarExtended \, 2012;
#X text 370 36 interface and modifications by Sylvain de Buyser \,
May 2017;
#X text 390 163 Time : from 166 to 1000ms;
#X text 380 53 A simple vibrato with filtered signal controls.;
#X text 390 113 Speed : from 1 to 6Hz;
#X obj 312 86 * 1000;
#X obj 312 66 pow -1;
#X obj 188 27 loadbang;
#X text 370 12 VIBRATO;
#X text 390 103 Depth : from 0 to 12;
#X obj 219 231 sig~;
#X obj 219 271 *~ 2;
#X obj 148 282 +~;
#X obj 148 262 *~;
#X obj 148 202 sig~;
#X obj 148 222 lop~ 1;
#X obj 219 251 lop~ 1;
#X connect 0 0 49 0;
#X connect 1 0 13 0;
#X connect 2 0 14 0;
#X connect 3 0 5 0;
#X connect 3 0 21 0;
#X connect 5 0 4 0;
#X connect 6 0 7 0;
#X connect 7 0 5 1;
#X connect 8 0 23 0;
#X connect 9 0 19 0;
#X connect 10 0 17 0;
#X connect 11 0 4 0;
#X connect 12 0 8 0;
#X connect 13 0 10 0;
#X connect 14 0 9 0;
#X connect 18 0 46 0;
#X connect 20 0 50 0;
#X connect 22 0 11 0;
#X connect 24 0 11 1;
#X connect 25 0 6 0;
#X connect 26 0 42 0;
#X connect 27 0 15 0;
#X connect 41 0 16 0;
#X connect 42 0 41 0;
#X connect 43 0 13 0;
#X connect 43 0 14 0;
#X connect 46 0 52 0;
#X connect 47 0 48 1;
#X connect 48 0 22 0;
#X connect 49 0 48 0;
#X connect 50 0 51 0;
#X connect 51 0 0 0;
#X connect 52 0 47 0;
#X connect 52 0 49 1;
#X coords 0 -1 1 1 180 100 1 10 50;
