#N canvas 0 22 771 339 10;
#X obj 24 18 inlet;
#X obj 24 248 outlet;
#X obj 74 248 outlet;
#X obj 124 248 outlet;
#X obj 174 248 outlet;
#X obj 224 248 outlet;
#X obj 274 248 outlet;
#X obj 324 248 outlet;
#X obj 374 248 outlet;
#X obj 424 248 outlet;
#X obj 424 228 delay;
#X obj 374 208 delay;
#X obj 324 188 delay;
#X obj 274 168 delay;
#X obj 224 148 delay;
#X obj 174 128 delay;
#X obj 124 108 delay;
#X obj 74 88 delay;
#X obj 64 38 \$1;
#X obj 64 18 loadbang;
#X connect 0 0 17 0;
#X connect 0 0 1 0;
#X connect 10 0 9 0;
#X connect 11 0 8 0;
#X connect 11 0 10 0;
#X connect 12 0 7 0;
#X connect 12 0 11 0;
#X connect 13 0 6 0;
#X connect 13 0 12 0;
#X connect 14 0 5 0;
#X connect 14 0 13 0;
#X connect 15 0 4 0;
#X connect 15 0 14 0;
#X connect 16 0 3 0;
#X connect 16 0 15 0;
#X connect 17 0 2 0;
#X connect 17 0 16 0;
#X connect 18 0 17 1;
#X connect 18 0 16 1;
#X connect 18 0 15 1;
#X connect 18 0 14 1;
#X connect 18 0 13 1;
#X connect 18 0 12 1;
#X connect 18 0 11 1;
#X connect 18 0 10 1;
#X connect 19 0 18 0;
