#N canvas 507 59 450 300 10;
#X obj 18 36 inlet;
#X obj 9 87 \$1;
#X obj 9 16 loadbang;
#X obj 63 98 tgl 15 0 empty empty empty 17 7 0 10 -262144 -1 -1 0 1
;
#X obj 9 176 pack;
#X obj 18 57 t b f;
#X msg 9 198 \$2 \$1 2;
#X obj 63 127 change;
#X obj 9 218 noteout;
#X connect 0 0 5 0;
#X connect 1 0 4 1;
#X connect 2 0 1 0;
#X connect 3 0 7 0;
#X connect 4 0 6 0;
#X connect 5 0 1 0;
#X connect 5 1 3 0;
#X connect 6 0 8 0;
#X connect 7 0 4 0;
#X coords 0 -1 1 1 40 40 1 50 80;
