#N canvas 351 37 1089 372 10;
#X obj 307 65 \$3;
#X obj 337 65 \$4;
#X floatatom 203 234 5 0 0 0 - - -, f 5;
#X obj 203 263 outlet;
#X obj 13 66 ctlin \$2 \$1;
#X obj 280 65 \$5;
#X obj 206 218 hsl 138 10 -1 1 0 0 empty \$0midi_slr empty -2 -8 0
10 -262144 -1 -1 6850 1;
#X obj 292 91 f;
#X obj 53 114 expr ($f1-$f2)*($f4-$f5)/($f2-$f3)+$f4;
#X msg 109 92 0;
#X obj 365 65 \$0;
#X obj 288 32 t b b b b b;
#X obj 292 114 pack 0 0 0;
#X msg 292 139 \; \$3midi_slr range \$1 \$2;
#X text 704 109 \$4 is the highest value;
#X text 704 83 \$2 is the MIDI control;
#X text 704 70 \$1 is the MIDI channel;
#X text 704 122 \$5 is the initial value;
#X text 704 96 \$3 is the lowest value;
#X text 704 60 ------------------------------------------;
#X text 704 7 MIDI joystick control;
#X text 714 30 to the wanted ones and set initial values for the;
#X text 714 41 neutral position of the joystick (assuming the MIDI
;
#X text 714 52 value is 63 whe the joystick is at the center);
#X text 714 19 Map the O-127 values of the X or Y axis;
#X msg 165 92 63;
#X obj 53 164 expr ($f1-$f2)*($f4-$f5)/($f2-$f3)+$f4;
#X msg 165 142 127;
#X msg 109 142 63;
#X obj 72 214 spigot;
#X obj 105 194 < 63;
#X obj 72 234 spigot;
#X obj 135 194 >= 63;
#X obj 53 134 abs;
#X obj 53 184 abs;
#X obj 288 8 loadbang;
#X connect 0 0 7 1;
#X connect 0 0 8 3;
#X connect 1 0 12 1;
#X connect 1 0 26 4;
#X connect 2 0 3 0;
#X connect 4 0 8 0;
#X connect 4 0 26 0;
#X connect 4 0 30 0;
#X connect 4 0 32 0;
#X connect 5 0 6 0;
#X connect 5 0 8 4;
#X connect 5 0 26 3;
#X connect 6 0 2 0;
#X connect 7 0 12 0;
#X connect 8 0 33 0;
#X connect 9 0 8 1;
#X connect 10 0 12 2;
#X connect 11 0 5 0;
#X connect 11 1 7 0;
#X connect 11 2 0 0;
#X connect 11 3 1 0;
#X connect 11 4 10 0;
#X connect 12 0 13 0;
#X connect 25 0 8 2;
#X connect 26 0 34 0;
#X connect 27 0 26 2;
#X connect 28 0 26 1;
#X connect 29 0 6 0;
#X connect 30 0 29 1;
#X connect 31 0 6 0;
#X connect 32 0 31 1;
#X connect 33 0 29 0;
#X connect 34 0 31 0;
#X connect 35 0 11 0;
#X connect 35 0 25 0;
#X connect 35 0 9 0;
#X connect 35 0 28 0;
#X connect 35 0 27 0;
#X coords 0 -1 1 1 150 55 1 200 200;
