#N canvas 237 110 711 520 10;
#X obj 9 65 bng 15 250 50 0 empty empty empty 17 7 0 10 -262144 -1
-1;
#X msg 29 63 stop;
#X floatatom 36 154 5 0 0 0 - - -;
#X obj 55 343 pack;
#X msg 55 363 \$2 \$1 2;
#X obj 55 383 noteout;
#X obj 9 6 inlet;
#X obj 9 113 t b b;
#X obj 63 229 spigot;
#X obj 63 179 t b f;
#X msg 9 173 1;
#X obj 159 65 bng 15 250 50 0 empty empty empty 17 7 0 10 -262144 -1
-1;
#X msg 179 63 stop;
#X floatatom 186 154 5 0 0 0 - - -;
#X obj 159 113 t b b;
#X obj 213 179 t b f;
#X msg 159 173 0;
#X obj 63 249 t b b;
#X obj 213 229 spigot;
#X obj 94 86 \$1;
#X obj 94 106 + 1;
#X obj 94 66 loadbang;
#X obj 36 133 count;
#X obj 186 133 count;
#X obj 9 84 metro \$2;
#X obj 159 84 metro \$2;
#X obj 97 209 == \$1;
#X obj 246 209 == \$1;
#X obj 135 300 delay \$2;
#X connect 0 0 24 0;
#X connect 1 0 24 0;
#X connect 2 0 3 1;
#X connect 2 0 9 0;
#X connect 3 0 4 0;
#X connect 4 0 5 0;
#X connect 6 0 0 0;
#X connect 7 0 10 0;
#X connect 7 1 22 0;
#X connect 8 0 17 0;
#X connect 9 0 8 0;
#X connect 9 1 26 0;
#X connect 10 0 3 0;
#X connect 11 0 25 0;
#X connect 12 0 25 0;
#X connect 13 0 15 0;
#X connect 13 0 3 1;
#X connect 14 0 16 0;
#X connect 14 1 23 0;
#X connect 15 0 18 0;
#X connect 15 1 27 0;
#X connect 16 0 3 0;
#X connect 17 0 28 0;
#X connect 17 1 1 0;
#X connect 18 0 12 0;
#X connect 19 0 20 0;
#X connect 20 0 22 1;
#X connect 20 0 23 1;
#X connect 21 0 19 0;
#X connect 22 0 2 0;
#X connect 23 0 13 0;
#X connect 24 0 7 0;
#X connect 25 0 14 0;
#X connect 26 0 8 1;
#X connect 27 0 18 1;
#X connect 28 0 11 0;
